<svg width="16" height="15" viewBox="0 0 16 15" fill="none" xmlns="http://www.w3.org/2000/svg">
<path fill-rule="evenodd" clip-rule="evenodd" d="M4.99967 0.333984C5.36786 0.333984 5.66634 0.632461 5.66634 1.00065V1.33399L10.333 1.334V1.00065C10.333 0.632462 10.6315 0.333985 10.9997 0.333984C11.3679 0.333984 11.6663 0.632461 11.6663 1.00065V1.334L12.4997 1.33401C13.9724 1.33401 15.1663 2.52792 15.1663 4.00067V12.0006C15.1663 13.4734 13.9724 14.6673 12.4997 14.6673L3.49967 14.6673C2.02691 14.6673 0.833008 13.4734 0.833008 12.0007L0.833008 5.50078L0.833008 4.00065C0.833008 2.52789 2.02692 1.33398 3.49968 1.33399L4.33301 1.33399V1.00065C4.33301 0.632461 4.63148 0.333984 4.99967 0.333984ZM4.33301 2.66732L3.49968 2.66732C2.7633 2.66732 2.16634 3.26427 2.16634 4.00065V4.83398H13.833V4.00067C13.833 3.26429 13.2361 2.66734 12.4997 2.66734L11.6663 2.66734V3.00065C11.6663 3.36884 11.3679 3.66732 10.9997 3.66732C10.6315 3.66732 10.333 3.36884 10.333 3.00065V2.66734L5.66634 2.66733V3.00065C5.66634 3.36884 5.36786 3.66732 4.99967 3.66732C4.63148 3.66732 4.33301 3.36884 4.33301 3.00065V2.66732ZM13.833 6.16732H2.16634L2.16634 12.0007C2.16634 12.737 2.76329 13.334 3.49967 13.334L12.4997 13.334C13.2361 13.334 13.833 12.737 13.833 12.0006V6.16732Z" fill="#787A80"/>
</svg>
