<svg width="12" height="15" viewBox="0 0 12 15" fill="none" xmlns="http://www.w3.org/2000/svg">
<path fill-rule="evenodd" clip-rule="evenodd" d="M3.33301 8.50065C3.33301 8.13246 3.63148 7.83398 3.99967 7.83398H7.99967C8.36786 7.83398 8.66634 8.13246 8.66634 8.50065C8.66634 8.86884 8.36786 9.16732 7.99967 9.16732H3.99967C3.63148 9.16732 3.33301 8.86884 3.33301 8.50065Z" fill="#424551"/>
<path fill-rule="evenodd" clip-rule="evenodd" d="M3.33301 11.0007C3.33301 10.6325 3.63148 10.334 3.99967 10.334H5.99967C6.36786 10.334 6.66634 10.6325 6.66634 11.0007C6.66634 11.3688 6.36786 11.6673 5.99967 11.6673H3.99967C3.63148 11.6673 3.33301 11.3688 3.33301 11.0007Z" fill="#424551"/>
<path fill-rule="evenodd" clip-rule="evenodd" d="M4.02829 0.529247C4.15331 0.404222 4.32288 0.333984 4.49969 0.333984H8.99969C10.4725 0.333984 11.6664 1.52789 11.6664 3.00065L11.6664 12.0007C11.6664 13.4734 10.4725 14.6673 8.99969 14.6673H2.99967C1.52691 14.6673 0.333004 13.4734 0.333008 12.0006L0.333024 4.50065C0.333025 4.32384 0.403263 4.15427 0.528286 4.02925L4.02829 0.529247ZM4.333 2.11015V4.33398H2.10917L4.333 2.11015ZM1.66636 5.66732L1.66634 12.0006C1.66634 12.737 2.26329 13.334 2.99967 13.334H8.99969C9.73607 13.334 10.333 12.737 10.333 12.0007L10.333 3.00065C10.333 2.26427 9.73607 1.66732 8.99969 1.66732H5.66634V5.00065C5.66634 5.36884 5.36786 5.66732 4.99967 5.66732H1.66636Z" fill="#424551"/>
</svg>
