<svg width="16" height="14" viewBox="0 0 16 14" fill="none" xmlns="http://www.w3.org/2000/svg">
<path fill-rule="evenodd" clip-rule="evenodd" d="M14.6153 6.04557C14.5204 6.70339 14.2954 7.32861 13.9619 7.90355C13.9869 8.0459 13.9997 8.18978 13.9997 8.33429C13.9997 8.83617 13.8543 9.3165 13.5849 9.7529C13.4504 9.97073 13.4158 10.226 13.4025 10.3946C13.3873 10.5879 13.3924 10.7994 13.4062 11.0025C13.4217 11.2304 13.4497 11.4697 13.4818 11.6954C13.2216 11.6196 12.9395 11.5434 12.6704 11.4826C12.4465 11.4321 12.2174 11.3891 12.0099 11.3676C11.8289 11.349 11.5674 11.3345 11.3335 11.4101C10.8221 11.5754 10.2594 11.6676 9.66636 11.6676C8.96109 11.6676 8.31335 11.5424 7.74559 11.325C7.60903 11.3312 7.47146 11.3343 7.33301 11.3343C6.52993 11.3343 5.75701 11.2287 5.03385 11.0335C6.08516 12.2494 7.81828 13.001 9.66636 13.001C10.3883 13.001 11.0812 12.8901 11.7198 12.6864C11.7209 12.6865 11.723 12.6864 11.726 12.6864C11.7424 12.686 11.7879 12.6851 11.8729 12.6939C12.0067 12.7077 12.1786 12.7385 12.377 12.7833C12.7719 12.8724 13.2157 13.0038 13.5615 13.1136C14.2949 13.3464 15.0056 12.7064 14.8745 11.9621C14.8181 11.6418 14.7595 11.2508 14.7365 10.9122C14.7249 10.7419 14.7236 10.6021 14.7317 10.4995C14.7351 10.457 14.7394 10.4304 14.7421 10.4162C15.1172 9.79487 15.333 9.08744 15.333 8.33429C15.333 7.48526 15.0693 6.70995 14.6153 6.04557Z" fill="#9A9CA5"/>
<path fill-rule="evenodd" clip-rule="evenodd" d="M3.73109 2.79943C2.83245 3.48662 2.33306 4.38871 2.33306 5.33398C2.33306 5.80534 2.45577 6.25932 2.68599 6.68147C2.77367 6.84226 2.79854 7.00812 2.80744 7.1204C2.81714 7.24283 2.8123 7.36867 2.80166 7.48633C2.78034 7.72191 2.72949 7.98884 2.66849 8.25174C2.59715 8.55927 2.50572 8.88724 2.41296 9.19518C2.76512 9.06719 3.15003 8.93601 3.51493 8.82956C3.80985 8.74352 4.10767 8.66886 4.37274 8.62695C4.60108 8.59084 4.93243 8.55536 5.2177 8.65405C5.85792 8.87555 6.57411 9.00065 7.33306 9.00065C8.76451 9.00065 10.0358 8.55621 10.935 7.86854C11.8337 7.18135 12.3331 6.27926 12.3331 5.33398C12.3331 4.38871 11.8337 3.48662 10.935 2.79943C10.0358 2.11176 8.76451 1.66732 7.33306 1.66732C5.90162 1.66732 4.63034 2.11176 3.73109 2.79943ZM2.92116 1.74028C4.07283 0.859589 5.6349 0.333984 7.33306 0.333984C9.03123 0.333984 10.5933 0.859589 11.745 1.74028C12.8973 2.62145 13.6664 3.88602 13.6664 5.33398C13.6664 6.78194 12.8973 8.04652 11.745 8.92769C10.5933 9.80838 9.03123 10.334 7.33306 10.334C6.43769 10.334 5.58244 10.188 4.80591 9.92241C4.80513 9.92459 4.74215 9.91843 4.58098 9.94392C4.39521 9.97329 4.15809 10.0308 3.88836 10.1095C3.35138 10.2662 2.74835 10.4878 2.28902 10.6666C1.49327 10.9763 0.682633 10.212 0.95074 9.39795C1.09284 8.96647 1.26043 8.42121 1.36966 7.95041C1.42468 7.71324 1.46039 7.51385 1.47375 7.36618C1.47839 7.31492 1.47958 7.27756 1.47932 7.2523C1.17246 6.66592 0.99973 6.01748 0.99973 5.33398C0.99973 3.88602 1.76887 2.62145 2.92116 1.74028Z" fill="#9A9CA5"/>
</svg>
