<svg width="1910" height="976" viewBox="0 0 1910 976" fill="none" xmlns="http://www.w3.org/2000/svg">
<g opacity="0.8" clip-path="url(#clip0_13082_2358)">
<path d="M81.9073 821.537C80.6208 821.537 79.6559 820.565 79.6559 819.268C79.6559 817.972 80.6208 817 81.9073 817C83.1938 817 84.1587 817.972 84.1587 819.268C84.1587 820.565 83.0866 821.537 81.9073 821.537Z" fill="white"/>
<path d="M81.9073 840.871C80.6208 840.871 79.6559 839.899 79.6559 838.602C79.6559 837.306 80.6208 836.334 81.9073 836.334C83.1938 836.334 84.1587 837.306 84.1587 838.602C84.1587 839.791 83.0866 840.871 81.9073 840.871Z" fill="white"/>
<path d="M81.9073 860.099C80.6208 860.099 79.6559 859.127 79.6559 857.831C79.6559 856.535 80.6208 855.562 81.9073 855.562C83.1938 855.562 84.1587 856.535 84.1587 857.831C84.1587 859.127 83.0866 860.099 81.9073 860.099Z" fill="white"/>
<path d="M81.9073 879.433C80.6208 879.433 79.6559 878.461 79.6559 877.165C79.6559 875.869 80.6208 874.896 81.9073 874.896C83.1938 874.896 84.1587 875.869 84.1587 877.165C84.1587 878.461 83.0866 879.433 81.9073 879.433Z" fill="white"/>
<path d="M81.9073 898.769C80.6208 898.769 79.6559 897.797 79.6559 896.501C79.6559 895.205 80.6208 894.232 81.9073 894.232C83.1938 894.232 84.1587 895.205 84.1587 896.501C84.1587 897.689 83.0866 898.769 81.9073 898.769Z" fill="white"/>
<path d="M81.9073 918.103C80.6208 918.103 79.6559 917.131 79.6559 915.835C79.6559 914.539 80.6208 913.566 81.9073 913.566C83.1938 913.566 84.1587 914.539 84.1587 915.835C84.1587 917.131 83.0866 918.103 81.9073 918.103Z" fill="white"/>
<path d="M81.9073 937.33C80.6208 937.33 79.6559 936.358 79.6559 935.061C79.6559 933.765 80.6208 932.793 81.9073 932.793C83.1938 932.793 84.1587 933.765 84.1587 935.061C84.1587 936.358 83.0866 937.33 81.9073 937.33Z" fill="white"/>
<path d="M81.9073 956.666C80.6208 956.666 79.6559 955.693 79.6559 954.397C79.6559 953.101 80.6208 952.129 81.9073 952.129C83.1938 952.129 84.1587 953.101 84.1587 954.397C84.1587 955.693 83.0866 956.666 81.9073 956.666Z" fill="white"/>
<path d="M81.9073 976C80.6208 976 79.6559 975.027 79.6559 973.731C79.6559 972.435 80.6208 971.463 81.9073 971.463C83.1938 971.463 84.1587 972.435 84.1587 973.731C84.1587 974.919 83.0866 976 81.9073 976Z" fill="white"/>
<path d="M65.9337 821.537C64.6472 821.537 63.6823 820.565 63.6823 819.268C63.6823 817.972 64.6472 817 65.9337 817C67.2202 817 68.1851 817.972 68.1851 819.268C68.1851 820.565 67.2202 821.537 65.9337 821.537Z" fill="white"/>
<path d="M65.9337 840.871C64.6472 840.871 63.6823 839.899 63.6823 838.602C63.6823 837.306 64.6472 836.334 65.9337 836.334C67.2202 836.334 68.1851 837.306 68.1851 838.602C68.1851 839.791 67.2202 840.871 65.9337 840.871Z" fill="white"/>
<path d="M65.9337 860.099C64.6472 860.099 63.6823 859.127 63.6823 857.831C63.6823 856.535 64.6472 855.562 65.9337 855.562C67.2202 855.562 68.1851 856.535 68.1851 857.831C68.1851 859.127 67.2202 860.099 65.9337 860.099Z" fill="white"/>
<path d="M65.9337 879.433C64.6472 879.433 63.6823 878.461 63.6823 877.165C63.6823 875.869 64.6472 874.896 65.9337 874.896C67.2202 874.896 68.1851 875.869 68.1851 877.165C68.1851 878.461 67.2202 879.433 65.9337 879.433Z" fill="white"/>
<path d="M65.9337 898.769C64.6472 898.769 63.6823 897.797 63.6823 896.501C63.6823 895.205 64.6472 894.232 65.9337 894.232C67.2202 894.232 68.1851 895.205 68.1851 896.501C68.1851 897.689 67.2202 898.769 65.9337 898.769Z" fill="white"/>
<path d="M65.9337 918.103C64.6472 918.103 63.6823 917.131 63.6823 915.835C63.6823 914.539 64.6472 913.566 65.9337 913.566C67.2202 913.566 68.1851 914.539 68.1851 915.835C68.1851 917.131 67.2202 918.103 65.9337 918.103Z" fill="white"/>
<path d="M65.9337 937.33C64.6472 937.33 63.6823 936.358 63.6823 935.061C63.6823 933.765 64.6472 932.793 65.9337 932.793C67.2202 932.793 68.1851 933.765 68.1851 935.061C68.1851 936.358 67.2202 937.33 65.9337 937.33Z" fill="white"/>
<path d="M65.9337 956.666C64.6472 956.666 63.6823 955.693 63.6823 954.397C63.6823 953.101 64.6472 952.129 65.9337 952.129C67.2202 952.129 68.1851 953.101 68.1851 954.397C68.1851 955.693 67.2202 956.666 65.9337 956.666Z" fill="white"/>
<path d="M65.9337 976C64.6472 976 63.6823 975.027 63.6823 973.731C63.6823 972.435 64.6472 971.463 65.9337 971.463C67.2202 971.463 68.1851 972.435 68.1851 973.731C68.1851 974.919 67.2202 976 65.9337 976Z" fill="white"/>
<path d="M113.749 821.537C112.462 821.537 111.497 820.565 111.497 819.268C111.497 817.972 112.462 817 113.749 817C115.035 817 116 817.972 116 819.268C116 820.565 115.035 821.537 113.749 821.537Z" fill="white"/>
<path d="M113.749 840.873C112.462 840.873 111.497 839.9 111.497 838.604C111.497 837.308 112.462 836.336 113.749 836.336C115.035 836.336 116 837.308 116 838.604C116 839.792 115.035 840.873 113.749 840.873Z" fill="white"/>
<path d="M113.749 860.099C112.462 860.099 111.497 859.127 111.497 857.831C111.497 856.535 112.462 855.562 113.749 855.562C115.035 855.562 116 856.643 116 857.831C116 859.127 115.035 860.099 113.749 860.099Z" fill="white"/>
<path d="M113.749 879.433C112.462 879.433 111.497 878.461 111.497 877.165C111.497 875.869 112.462 874.896 113.749 874.896C115.035 874.896 116 875.977 116 877.165C116 878.353 115.035 879.433 113.749 879.433Z" fill="white"/>
<path d="M113.749 898.769C112.462 898.769 111.497 897.797 111.497 896.501C111.497 895.205 112.462 894.232 113.749 894.232C115.035 894.232 116 895.205 116 896.501C116 897.689 115.035 898.769 113.749 898.769Z" fill="white"/>
<path d="M113.749 918.103C112.462 918.103 111.497 917.131 111.497 915.835C111.497 914.539 112.462 913.566 113.749 913.566C115.035 913.566 116 914.539 116 915.835C116 917.131 115.035 918.103 113.749 918.103Z" fill="white"/>
<path d="M113.749 937.33C112.462 937.33 111.497 936.358 111.497 935.061C111.497 933.765 112.462 932.793 113.749 932.793C115.035 932.793 116 933.765 116 935.061C116 936.358 115.035 937.33 113.749 937.33Z" fill="white"/>
<path d="M113.749 956.666C112.462 956.666 111.497 955.693 111.497 954.397C111.497 953.101 112.462 952.129 113.749 952.129C115.035 952.129 116 953.101 116 954.397C116 955.693 115.035 956.666 113.749 956.666Z" fill="white"/>
<path d="M113.749 976C112.462 976 111.497 975.027 111.497 973.731C111.497 972.435 112.462 971.463 113.749 971.463C115.035 971.463 116 972.435 116 973.731C116 974.919 115.035 976 113.749 976Z" fill="white"/>
<path d="M97.7745 821.537C96.488 821.537 95.5231 820.565 95.5231 819.268C95.5231 817.972 96.5952 817 97.7745 817C99.061 817 100.026 817.972 100.026 819.268C100.026 820.565 99.061 821.537 97.7745 821.537Z" fill="white"/>
<path d="M97.7745 840.871C96.488 840.871 95.5231 839.899 95.5231 838.602C95.5231 837.306 96.488 836.334 97.7745 836.334C99.061 836.334 100.026 837.306 100.026 838.602C100.026 839.791 99.061 840.871 97.7745 840.871Z" fill="white"/>
<path d="M97.7745 860.099C96.488 860.099 95.5231 859.127 95.5231 857.831C95.5231 856.535 96.488 855.562 97.7745 855.562C99.061 855.562 100.026 856.535 100.026 857.831C100.026 859.127 99.061 860.099 97.7745 860.099Z" fill="white"/>
<path d="M97.7745 879.433C96.488 879.433 95.5231 878.461 95.5231 877.165C95.5231 875.869 96.488 874.896 97.7745 874.896C99.061 874.896 100.026 875.869 100.026 877.165C100.026 878.461 99.061 879.433 97.7745 879.433Z" fill="white"/>
<path d="M97.7745 898.769C96.488 898.769 95.5231 897.797 95.5231 896.501C95.5231 895.205 96.488 894.232 97.7745 894.232C99.061 894.232 100.026 895.205 100.026 896.501C100.026 897.689 99.061 898.769 97.7745 898.769Z" fill="white"/>
<path d="M97.7745 918.103C96.488 918.103 95.5231 917.131 95.5231 915.835C95.5231 914.539 96.488 913.566 97.7745 913.566C99.061 913.566 100.026 914.539 100.026 915.835C100.026 917.131 99.061 918.103 97.7745 918.103Z" fill="white"/>
<path d="M97.7745 937.33C96.488 937.33 95.5231 936.358 95.5231 935.061C95.5231 933.765 96.488 932.793 97.7745 932.793C99.061 932.793 100.026 933.765 100.026 935.061C100.026 936.358 99.061 937.33 97.7745 937.33Z" fill="white"/>
<path d="M97.7745 956.666C96.488 956.666 95.5231 955.693 95.5231 954.397C95.5231 953.101 96.488 952.129 97.7745 952.129C99.061 952.129 100.026 953.101 100.026 954.397C100.026 955.693 99.061 956.666 97.7745 956.666Z" fill="white"/>
<path d="M97.7745 976C96.488 976 95.5231 975.027 95.5231 973.731C95.5231 972.435 96.488 971.463 97.7745 971.463C99.061 971.463 100.026 972.435 100.026 973.731C100.026 974.919 99.061 976 97.7745 976Z" fill="white"/>
<path d="M50.0665 821.537C48.78 821.537 47.8151 820.565 47.8151 819.268C47.8151 817.972 48.78 817 50.0665 817C51.353 817 52.3179 817.972 52.3179 819.268C52.3179 820.565 51.2458 821.537 50.0665 821.537Z" fill="white"/>
<path d="M50.0665 840.871C48.78 840.871 47.8151 839.899 47.8151 838.602C47.8151 837.306 48.78 836.334 50.0665 836.334C51.353 836.334 52.3179 837.306 52.3179 838.602C52.3179 839.791 51.2458 840.871 50.0665 840.871Z" fill="white"/>
<path d="M50.0665 860.099C48.78 860.099 47.8151 859.127 47.8151 857.831C47.8151 856.535 48.78 855.562 50.0665 855.562C51.353 855.562 52.3179 856.535 52.3179 857.831C52.3179 859.127 51.2458 860.099 50.0665 860.099Z" fill="white"/>
<path d="M50.0665 879.433C48.78 879.433 47.8151 878.461 47.8151 877.165C47.8151 875.869 48.78 874.896 50.0665 874.896C51.353 874.896 52.3179 875.869 52.3179 877.165C52.3179 878.461 51.2458 879.433 50.0665 879.433Z" fill="white"/>
<path d="M50.0665 898.769C48.78 898.769 47.8151 897.797 47.8151 896.501C47.8151 895.205 48.78 894.232 50.0665 894.232C51.353 894.232 52.3179 895.205 52.3179 896.501C52.3179 897.689 51.2458 898.769 50.0665 898.769Z" fill="white"/>
<path d="M50.0665 918.103C48.78 918.103 47.8151 917.131 47.8151 915.835C47.8151 914.539 48.78 913.566 50.0665 913.566C51.353 913.566 52.3179 914.539 52.3179 915.835C52.3179 917.131 51.2458 918.103 50.0665 918.103Z" fill="white"/>
<path d="M50.0665 937.33C48.78 937.33 47.8151 936.358 47.8151 935.061C47.8151 933.765 48.78 932.793 50.0665 932.793C51.353 932.793 52.3179 933.765 52.3179 935.061C52.3179 936.358 51.2458 937.33 50.0665 937.33Z" fill="white"/>
<path d="M50.0665 956.666C48.78 956.666 47.8151 955.693 47.8151 954.397C47.8151 953.101 48.78 952.129 50.0665 952.129C51.353 952.129 52.3179 953.101 52.3179 954.397C52.3179 955.693 51.2458 956.666 50.0665 956.666Z" fill="white"/>
<path d="M50.0665 976C48.78 976 47.8151 975.027 47.8151 973.731C47.8151 972.435 48.78 971.463 50.0665 971.463C51.353 971.463 52.3179 972.435 52.3179 973.731C52.3179 974.919 51.2458 976 50.0665 976Z" fill="white"/>
<path d="M34.0924 821.537C32.8059 821.537 31.841 820.565 31.841 819.268C31.841 817.972 32.8059 817 34.0924 817C35.3789 817 36.3437 817.972 36.3437 819.268C36.3437 820.565 35.3789 821.537 34.0924 821.537Z" fill="white"/>
<path d="M34.0924 840.871C32.8059 840.871 31.841 839.899 31.841 838.602C31.841 837.306 32.8059 836.334 34.0924 836.334C35.3789 836.334 36.3437 837.306 36.3437 838.602C36.3437 839.791 35.3789 840.871 34.0924 840.871Z" fill="white"/>
<path d="M34.0924 860.099C32.8059 860.099 31.841 859.127 31.841 857.831C31.841 856.535 32.8059 855.562 34.0924 855.562C35.3789 855.562 36.3437 856.535 36.3437 857.831C36.3437 859.127 35.3789 860.099 34.0924 860.099Z" fill="white"/>
<path d="M31.841 877.165C31.841 878.418 32.849 879.433 34.0924 879.433C35.3358 879.433 36.3437 878.418 36.3437 877.165C36.3437 875.912 35.3358 874.896 34.0924 874.896C32.849 874.896 31.841 875.912 31.841 877.165Z" fill="white"/>
<path d="M34.0924 898.769C32.8059 898.769 31.841 897.797 31.841 896.501C31.841 895.205 32.8059 894.232 34.0924 894.232C35.3789 894.232 36.3437 895.205 36.3437 896.501C36.3437 897.689 35.3789 898.769 34.0924 898.769Z" fill="white"/>
<path d="M34.0924 918.103C32.8059 918.103 31.841 917.131 31.841 915.835C31.841 914.539 32.8059 913.566 34.0924 913.566C35.3789 913.566 36.3437 914.539 36.3437 915.835C36.3437 917.131 35.3789 918.103 34.0924 918.103Z" fill="white"/>
<path d="M34.0924 937.33C32.8059 937.33 31.841 936.358 31.841 935.061C31.841 933.765 32.8059 932.793 34.0924 932.793C35.3789 932.793 36.3437 933.765 36.3437 935.061C36.3437 936.358 35.3789 937.33 34.0924 937.33Z" fill="white"/>
<path d="M31.841 954.397C31.841 955.65 32.849 956.666 34.0924 956.666C35.3358 956.666 36.3437 955.65 36.3437 954.397C36.3437 953.144 35.3358 952.129 34.0924 952.129C32.849 952.129 31.841 953.144 31.841 954.397Z" fill="white"/>
<path d="M34.0924 976C32.8059 976 31.841 975.027 31.841 973.731C31.841 972.435 32.8059 971.463 34.0924 971.463C35.3789 971.463 36.3437 972.435 36.3437 973.731C36.3437 974.919 35.3789 976 34.0924 976Z" fill="white"/>
<path d="M18.1182 821.537C16.8317 821.537 15.8669 820.565 15.8669 819.268C15.8669 817.972 16.8317 817 18.1182 817C19.4047 817 20.3696 817.972 20.3696 819.268C20.3696 820.565 19.4047 821.537 18.1182 821.537Z" fill="white"/>
<path d="M18.1182 840.871C16.8317 840.871 15.8669 839.899 15.8669 838.602C15.8669 837.306 16.8317 836.334 18.1182 836.334C19.4047 836.334 20.3696 837.306 20.3696 838.602C20.3696 839.791 19.4047 840.871 18.1182 840.871Z" fill="white"/>
<path d="M18.1182 860.099C16.8317 860.099 15.8669 859.127 15.8669 857.831C15.8669 856.535 16.8317 855.562 18.1182 855.562C19.4047 855.562 20.3696 856.535 20.3696 857.831C20.3696 859.127 19.4047 860.099 18.1182 860.099Z" fill="white"/>
<path d="M18.1182 879.433C16.8317 879.433 15.8669 878.461 15.8669 877.165C15.8669 875.869 16.8317 874.896 18.1182 874.896C19.4047 874.896 20.3696 875.869 20.3696 877.165C20.3696 878.461 19.4047 879.433 18.1182 879.433Z" fill="white"/>
<path d="M18.1182 898.769C16.8317 898.769 15.8669 897.797 15.8669 896.501C15.8669 895.205 16.8317 894.232 18.1182 894.232C19.4047 894.232 20.3696 895.205 20.3696 896.501C20.3696 897.689 19.4047 898.769 18.1182 898.769Z" fill="white"/>
<path d="M18.1182 918.103C16.8317 918.103 15.8669 917.131 15.8669 915.835C15.8669 914.539 16.8317 913.566 18.1182 913.566C19.4047 913.566 20.3696 914.539 20.3696 915.835C20.3696 917.131 19.4047 918.103 18.1182 918.103Z" fill="white"/>
<path d="M18.1182 937.33C16.8317 937.33 15.8669 936.358 15.8669 935.061C15.8669 933.765 16.8317 932.793 18.1182 932.793C19.4047 932.793 20.3696 933.765 20.3696 935.061C20.3696 936.358 19.4047 937.33 18.1182 937.33Z" fill="white"/>
<path d="M18.1182 956.666C16.8317 956.666 15.8669 955.693 15.8669 954.397C15.8669 953.101 16.8317 952.129 18.1182 952.129C19.4047 952.129 20.3696 953.101 20.3696 954.397C20.3696 955.693 19.4047 956.666 18.1182 956.666Z" fill="white"/>
<path d="M18.1182 976C16.8317 976 15.8669 975.027 15.8669 973.731C15.8669 972.435 16.8317 971.463 18.1182 971.463C19.4047 971.463 20.3696 972.435 20.3696 973.731C20.3696 974.919 19.4047 976 18.1182 976Z" fill="white"/>
<path d="M2.25154 821.537C0.965032 821.537 0.000152909 820.565 0.000152966 819.268C0.000153022 817.972 0.965033 817 2.25154 817C3.53805 817 4.50293 817.972 4.50293 819.268C4.50293 820.565 3.43084 821.537 2.25154 821.537Z" fill="white"/>
<path d="M2.25154 840.871C0.965032 840.871 0.000152909 839.899 0.000152966 838.602C0.000153022 837.306 0.965033 836.334 2.25154 836.334C3.53805 836.334 4.50293 837.306 4.50293 838.602C4.50293 839.791 3.43084 840.871 2.25154 840.871Z" fill="white"/>
<path d="M2.25154 860.099C0.965032 860.099 0.000152909 859.127 0.000152966 857.831C0.000153022 856.535 0.965033 855.562 2.25154 855.562C3.53805 855.562 4.50293 856.535 4.50293 857.831C4.50293 859.127 3.43084 860.099 2.25154 860.099Z" fill="white"/>
<path d="M2.25154 879.433C0.965032 879.433 0.000152909 878.461 0.000152966 877.165C0.000153022 875.869 0.965033 874.896 2.25154 874.896C3.53805 874.896 4.50293 875.869 4.50293 877.165C4.50293 878.461 3.43084 879.433 2.25154 879.433Z" fill="white"/>
<path d="M2.25154 898.769C0.965026 898.769 0.000144803 897.797 0.000144859 896.501C0.000144916 895.205 0.965026 894.232 2.25154 894.232C3.53805 894.232 4.50293 895.205 4.50293 896.501C4.50293 897.689 3.43084 898.769 2.25154 898.769Z" fill="white"/>
<path d="M2.25154 918.103C0.965026 918.103 0.000144803 917.131 0.000144859 915.835C0.000144916 914.539 0.965026 913.566 2.25154 913.566C3.53805 913.566 4.50293 914.539 4.50293 915.835C4.50293 917.131 3.43084 918.103 2.25154 918.103Z" fill="white"/>
<path d="M2.25154 937.33C0.965026 937.33 0.000144803 936.358 0.000144859 935.061C0.000144916 933.765 0.965026 932.793 2.25154 932.793C3.53805 932.793 4.50293 933.765 4.50293 935.061C4.50293 936.358 3.43084 937.33 2.25154 937.33Z" fill="white"/>
<path d="M2.25154 956.666C0.965026 956.666 0.000144803 955.693 0.000144859 954.397C0.000144916 953.101 0.965026 952.129 2.25154 952.129C3.53805 952.129 4.50293 953.101 4.50293 954.397C4.50293 955.693 3.43084 956.666 2.25154 956.666Z" fill="white"/>
<path d="M2.25154 976C0.965026 976 0.000144803 975.027 0.000144859 973.731C0.000144916 972.435 0.965026 971.463 2.25154 971.463C3.53805 971.463 4.50293 972.435 4.50293 973.731C4.50293 974.919 3.43084 976 2.25154 976Z" fill="white"/>
</g>
<g opacity="0.2" clip-path="url(#clip1_13082_2358)">
<path d="M1828.1 0C1749.54 0 1686 63.5443 1686 142.097C1686 220.456 1749.54 284.195 1828.1 284.195C1906.46 284.195 1970.19 220.651 1970.19 142.097C1970 63.5443 1906.46 0 1828.1 0ZM1828.1 275.034C1754.61 275.034 1695.16 215.583 1695.16 142.097C1695.16 68.6122 1754.61 9.16129 1828.1 9.16129C1901.58 9.16129 1961.03 68.6122 1961.03 142.097C1961.03 215.388 1901.39 275.034 1828.1 275.034Z" fill="white"/>
<path d="M1828.1 30.6035C1766.7 30.6035 1716.8 80.5033 1716.8 141.903C1716.8 203.304 1766.7 253.203 1828.1 253.203C1889.5 253.203 1939.4 203.499 1939.4 142.098C1939.4 80.5033 1889.5 30.6035 1828.1 30.6035ZM1828.1 236.245C1776.05 236.245 1733.76 193.947 1733.76 141.903C1733.76 89.8595 1776.05 47.5616 1828.1 47.5616C1880.14 47.5616 1922.44 89.8595 1922.44 141.903C1922.44 193.947 1880.14 236.245 1828.1 236.245Z" fill="white"/>
<path d="M1828.1 79.5273C1793.6 79.5273 1765.53 107.596 1765.53 142.097C1765.53 176.598 1793.4 204.667 1828.1 204.667C1862.6 204.667 1890.67 176.598 1890.67 142.097C1890.47 107.596 1862.6 79.5273 1828.1 79.5273ZM1828.1 175.623C1809.58 175.623 1794.57 160.614 1794.57 142.097C1794.57 123.579 1809.58 108.571 1828.1 108.571C1846.62 108.571 1861.62 123.579 1861.62 142.097C1861.62 160.614 1846.62 175.623 1828.1 175.623Z" fill="white"/>
</g>
<defs>
<clipPath id="clip0_13082_2358">
<rect width="159" height="116" fill="white" transform="translate(116 817) rotate(90)"/>
</clipPath>
<clipPath id="clip1_13082_2358">
<rect width="284" height="284" fill="white" transform="translate(1686)"/>
</clipPath>
</defs>
</svg>
