<svg width="1920" height="345" viewBox="0 0 1920 345" fill="none" xmlns="http://www.w3.org/2000/svg">
<g opacity="0.2" clip-path="url(#clip0_13085_2360)">
<path d="M30.0975 207C-48.4557 207 -112 270.544 -112 349.097C-112 427.456 -48.4557 491.195 30.0975 491.195C108.456 491.195 172.195 427.651 172.195 349.097C172 270.544 108.456 207 30.0975 207ZM30.0975 482.034C-43.3878 482.034 -102.839 422.583 -102.839 349.097C-102.839 275.612 -43.3878 216.161 30.0975 216.161C103.583 216.161 163.034 275.612 163.034 349.097C163.034 422.388 103.388 482.034 30.0975 482.034Z" fill="white"/>
<path d="M30.0985 237.603C-31.3016 237.603 -81.2014 287.502 -81.2014 348.902C-81.2014 410.303 -31.3016 460.202 30.0985 460.202C91.4986 460.202 141.398 410.498 141.398 349.097C141.398 287.502 91.4986 237.603 30.0985 237.603ZM30.0985 443.244C-21.9454 443.244 -64.2433 400.946 -64.2433 348.902C-64.2433 296.859 -21.9454 254.561 30.0985 254.561C82.1424 254.561 124.44 296.859 124.44 348.902C124.44 400.946 82.1424 443.244 30.0985 443.244Z" fill="white"/>
<path d="M30.098 286.527C-4.40304 286.527 -32.4717 314.596 -32.4717 349.097C-32.4717 383.598 -4.59796 411.667 30.098 411.667C64.599 411.667 92.6677 383.598 92.6677 349.097C92.4727 314.596 64.599 286.527 30.098 286.527ZM30.098 382.623C11.5805 382.623 -3.42843 367.614 -3.42843 349.097C-3.42843 330.579 11.5805 315.571 30.098 315.571C48.6155 315.571 63.6244 330.579 63.6244 349.097C63.6244 367.614 48.6155 382.623 30.098 382.623Z" fill="white"/>
</g>
<g opacity="0.3">
<path d="M1639.34 323.322L1653 323.322L1653 287L1616.68 287L1616.68 300.556L1639.34 300.556L1639.34 323.322Z" fill="white"/>
<path d="M1614.82 347.845L1628.37 347.845L1628.37 311.523L1592.15 311.523L1592.15 325.183L1614.82 325.183L1614.82 347.845Z" fill="white"/>
<path d="M1590.19 372.372L1603.85 372.372L1603.85 336.153L1567.52 336.153L1567.52 349.709L1590.19 349.709L1590.19 372.372Z" fill="white"/>
</g>
<g opacity="0.8">
<path d="M1768.34 40.2644C1768.34 41.7838 1767.19 42.9234 1765.67 42.9234C1764.14 42.9234 1763 41.7838 1763 40.2644C1763 38.745 1764.14 37.6055 1765.67 37.6055C1767.19 37.6055 1768.34 38.8716 1768.34 40.2644Z" fill="white"/>
<path d="M1791.08 40.2644C1791.08 41.7838 1789.93 42.9234 1788.41 42.9234C1786.88 42.9234 1785.74 41.7838 1785.74 40.2644C1785.74 38.745 1786.88 37.6055 1788.41 37.6055C1789.8 37.6055 1791.08 38.8716 1791.08 40.2644Z" fill="white"/>
<path d="M1813.69 40.2644C1813.69 41.7838 1812.54 42.9234 1811.02 42.9234C1809.5 42.9234 1808.35 41.7838 1808.35 40.2644C1808.35 38.745 1809.5 37.6055 1811.02 37.6055C1812.54 37.6055 1813.69 38.8716 1813.69 40.2644Z" fill="white"/>
<path d="M1836.43 40.2644C1836.43 41.7838 1835.28 42.9234 1833.76 42.9234C1832.24 42.9234 1831.09 41.7838 1831.09 40.2644C1831.09 38.745 1832.24 37.6055 1833.76 37.6055C1835.28 37.6055 1836.43 38.8716 1836.43 40.2644Z" fill="white"/>
<path d="M1859.17 40.2644C1859.17 41.7838 1858.02 42.9234 1856.5 42.9234C1854.98 42.9234 1853.83 41.7838 1853.83 40.2644C1853.83 38.745 1854.98 37.6055 1856.5 37.6055C1857.9 37.6055 1859.17 38.8716 1859.17 40.2644Z" fill="white"/>
<path d="M1881.91 40.2644C1881.91 41.7838 1880.76 42.9234 1879.24 42.9234C1877.72 42.9234 1876.57 41.7838 1876.57 40.2644C1876.57 38.745 1877.72 37.6055 1879.24 37.6055C1880.76 37.6055 1881.91 38.8716 1881.91 40.2644Z" fill="white"/>
<path d="M1904.52 40.2644C1904.52 41.7838 1903.38 42.9234 1901.85 42.9234C1900.33 42.9234 1899.18 41.7838 1899.18 40.2644C1899.18 38.745 1900.33 37.6055 1901.85 37.6055C1903.38 37.6055 1904.52 38.8716 1904.52 40.2644Z" fill="white"/>
<path d="M1768.34 59.1306C1768.34 60.6501 1767.19 61.7896 1765.67 61.7896C1764.14 61.7896 1763 60.6501 1763 59.1306C1763 57.6112 1764.14 56.4717 1765.67 56.4717C1767.19 56.4717 1768.34 57.6112 1768.34 59.1306Z" fill="white"/>
<path d="M1791.08 59.1306C1791.08 60.6501 1789.93 61.7896 1788.41 61.7896C1786.88 61.7896 1785.74 60.6501 1785.74 59.1306C1785.74 57.6112 1786.88 56.4717 1788.41 56.4717C1789.8 56.4717 1791.08 57.6112 1791.08 59.1306Z" fill="white"/>
<path d="M1813.69 59.1306C1813.69 60.6501 1812.54 61.7896 1811.02 61.7896C1809.5 61.7896 1808.35 60.6501 1808.35 59.1306C1808.35 57.6112 1809.5 56.4717 1811.02 56.4717C1812.54 56.4717 1813.69 57.6112 1813.69 59.1306Z" fill="white"/>
<path d="M1836.43 59.1306C1836.43 60.6501 1835.28 61.7896 1833.76 61.7896C1832.24 61.7896 1831.09 60.6501 1831.09 59.1306C1831.09 57.6112 1832.24 56.4717 1833.76 56.4717C1835.28 56.4717 1836.43 57.6112 1836.43 59.1306Z" fill="white"/>
<path d="M1859.17 59.1306C1859.17 60.6501 1858.02 61.7896 1856.5 61.7896C1854.98 61.7896 1853.83 60.6501 1853.83 59.1306C1853.83 57.6112 1854.98 56.4717 1856.5 56.4717C1857.9 56.4717 1859.17 57.6112 1859.17 59.1306Z" fill="white"/>
<path d="M1881.91 59.1306C1881.91 60.6501 1880.76 61.7896 1879.24 61.7896C1877.72 61.7896 1876.57 60.6501 1876.57 59.1306C1876.57 57.6112 1877.72 56.4717 1879.24 56.4717C1880.76 56.4717 1881.91 57.6112 1881.91 59.1306Z" fill="white"/>
<path d="M1904.52 59.1306C1904.52 60.6501 1903.38 61.7896 1901.85 61.7896C1900.33 61.7896 1899.18 60.6501 1899.18 59.1306C1899.18 57.6112 1900.33 56.4717 1901.85 56.4717C1903.38 56.4717 1904.52 57.6112 1904.52 59.1306Z" fill="white"/>
<path d="M1768.34 2.65896C1768.34 4.17837 1767.19 5.31793 1765.67 5.31793C1764.14 5.31793 1763 4.17837 1763 2.65896C1763 1.13956 1764.14 0 1765.67 0C1767.19 0 1768.34 1.13956 1768.34 2.65896Z" fill="white"/>
<path d="M1791.08 2.65896C1791.08 4.17837 1789.93 5.31793 1788.41 5.31793C1786.88 5.31793 1785.74 4.17837 1785.74 2.65896C1785.74 1.13956 1786.88 0 1788.41 0C1789.8 0 1791.08 1.13956 1791.08 2.65896Z" fill="white"/>
<path d="M1813.69 2.65896C1813.69 4.17837 1812.54 5.31793 1811.02 5.31793C1809.5 5.31793 1808.35 4.17837 1808.35 2.65896C1808.35 1.13956 1809.62 0 1811.02 0C1812.54 0 1813.69 1.13956 1813.69 2.65896Z" fill="white"/>
<path d="M1836.43 2.65896C1836.43 4.17837 1835.28 5.31793 1833.76 5.31793C1832.24 5.31793 1831.09 4.17837 1831.09 2.65896C1831.09 1.13956 1832.36 0 1833.76 0C1835.16 0 1836.43 1.13956 1836.43 2.65896Z" fill="white"/>
<path d="M1859.17 2.65896C1859.17 4.17837 1858.02 5.31793 1856.5 5.31793C1854.98 5.31793 1853.83 4.17837 1853.83 2.65896C1853.83 1.13956 1854.98 0 1856.5 0C1857.9 0 1859.17 1.13956 1859.17 2.65896Z" fill="white"/>
<path d="M1881.91 2.65896C1881.91 4.17837 1880.76 5.31793 1879.24 5.31793C1877.72 5.31793 1876.57 4.17837 1876.57 2.65896C1876.57 1.13956 1877.72 0 1879.24 0C1880.76 0 1881.91 1.13956 1881.91 2.65896Z" fill="white"/>
<path d="M1904.52 2.65896C1904.52 4.17837 1903.38 5.31793 1901.85 5.31793C1900.33 5.31793 1899.18 4.17837 1899.18 2.65896C1899.18 1.13956 1900.33 0 1901.85 0C1903.38 0 1904.52 1.13956 1904.52 2.65896Z" fill="white"/>
<path d="M1768.34 21.5252C1768.34 23.0446 1767.19 24.1841 1765.67 24.1841C1764.14 24.1841 1763 22.918 1763 21.5252C1763 20.0058 1764.14 18.8662 1765.67 18.8662C1767.19 18.8662 1768.34 20.0058 1768.34 21.5252Z" fill="white"/>
<path d="M1791.08 21.5252C1791.08 23.0446 1789.93 24.1841 1788.41 24.1841C1786.88 24.1841 1785.74 23.0446 1785.74 21.5252C1785.74 20.0058 1786.88 18.8662 1788.41 18.8662C1789.8 18.8662 1791.08 20.0058 1791.08 21.5252Z" fill="white"/>
<path d="M1813.69 21.5252C1813.69 23.0446 1812.54 24.1841 1811.02 24.1841C1809.5 24.1841 1808.35 23.0446 1808.35 21.5252C1808.35 20.0058 1809.5 18.8662 1811.02 18.8662C1812.54 18.8662 1813.69 20.0058 1813.69 21.5252Z" fill="white"/>
<path d="M1836.43 21.5252C1836.43 23.0446 1835.28 24.1841 1833.76 24.1841C1832.24 24.1841 1831.09 23.0446 1831.09 21.5252C1831.09 20.0058 1832.24 18.8662 1833.76 18.8662C1835.28 18.8662 1836.43 20.0058 1836.43 21.5252Z" fill="white"/>
<path d="M1859.17 21.5252C1859.17 23.0446 1858.02 24.1841 1856.5 24.1841C1854.98 24.1841 1853.83 23.0446 1853.83 21.5252C1853.83 20.0058 1854.98 18.8662 1856.5 18.8662C1857.9 18.8662 1859.17 20.0058 1859.17 21.5252Z" fill="white"/>
<path d="M1881.91 21.5252C1881.91 23.0446 1880.76 24.1841 1879.24 24.1841C1877.72 24.1841 1876.57 23.0446 1876.57 21.5252C1876.57 20.0058 1877.72 18.8662 1879.24 18.8662C1880.76 18.8662 1881.91 20.0058 1881.91 21.5252Z" fill="white"/>
<path d="M1904.52 21.5252C1904.52 23.0446 1903.38 24.1841 1901.85 24.1841C1900.33 24.1841 1899.18 23.0446 1899.18 21.5252C1899.18 20.0058 1900.33 18.8662 1901.85 18.8662C1903.38 18.8662 1904.52 20.0058 1904.52 21.5252Z" fill="white"/>
<path d="M1768.34 77.8699C1768.34 79.3893 1767.19 80.5289 1765.67 80.5289C1764.14 80.5289 1763 79.3893 1763 77.8699C1763 76.3505 1764.14 75.2109 1765.67 75.2109C1767.19 75.2109 1768.34 76.4771 1768.34 77.8699Z" fill="white"/>
<path d="M1791.08 77.8699C1791.08 79.3893 1789.93 80.5289 1788.41 80.5289C1786.88 80.5289 1785.74 79.3893 1785.74 77.8699C1785.74 76.3505 1786.88 75.2109 1788.41 75.2109C1789.8 75.2109 1791.08 76.4771 1791.08 77.8699Z" fill="white"/>
<path d="M1813.69 77.8699C1813.69 79.3893 1812.54 80.5289 1811.02 80.5289C1809.5 80.5289 1808.35 79.3893 1808.35 77.8699C1808.35 76.3505 1809.5 75.2109 1811.02 75.2109C1812.54 75.2109 1813.69 76.4771 1813.69 77.8699Z" fill="white"/>
<path d="M1836.43 77.8699C1836.43 79.3893 1835.28 80.5289 1833.76 80.5289C1832.24 80.5289 1831.09 79.3893 1831.09 77.8699C1831.09 76.3505 1832.24 75.2109 1833.76 75.2109C1835.28 75.2109 1836.43 76.4771 1836.43 77.8699Z" fill="white"/>
<path d="M1859.17 77.8699C1859.17 79.3893 1858.02 80.5289 1856.5 80.5289C1854.98 80.5289 1853.83 79.3893 1853.83 77.8699C1853.83 76.3505 1854.98 75.2109 1856.5 75.2109C1857.9 75.2109 1859.17 76.4771 1859.17 77.8699Z" fill="white"/>
<path d="M1881.91 77.8699C1881.91 79.3893 1880.76 80.5289 1879.24 80.5289C1877.72 80.5289 1876.57 79.3893 1876.57 77.8699C1876.57 76.3505 1877.72 75.2109 1879.24 75.2109C1880.76 75.2109 1881.91 76.4771 1881.91 77.8699Z" fill="white"/>
<path d="M1904.52 77.8699C1904.52 79.3893 1903.38 80.5289 1901.85 80.5289C1900.33 80.5289 1899.18 79.3893 1899.18 77.8699C1899.18 76.3505 1900.33 75.2109 1901.85 75.2109C1903.38 75.2109 1904.52 76.4771 1904.52 77.8699Z" fill="white"/>
<path d="M1768.34 96.7361C1768.34 98.2555 1767.19 99.3951 1765.67 99.3951C1764.14 99.3951 1763 98.2555 1763 96.7361C1763 95.2167 1764.14 94.0771 1765.67 94.0771C1767.19 94.0771 1768.34 95.2167 1768.34 96.7361Z" fill="white"/>
<path d="M1791.08 96.7361C1791.08 98.2555 1789.93 99.3951 1788.41 99.3951C1786.88 99.3951 1785.74 98.2555 1785.74 96.7361C1785.74 95.2167 1786.88 94.0771 1788.41 94.0771C1789.8 94.0771 1791.08 95.2167 1791.08 96.7361Z" fill="white"/>
<path d="M1813.69 96.7361C1813.69 98.2555 1812.54 99.3951 1811.02 99.3951C1809.5 99.3951 1808.35 98.2555 1808.35 96.7361C1808.35 95.2167 1809.5 94.0771 1811.02 94.0771C1812.54 94.0771 1813.69 95.2167 1813.69 96.7361Z" fill="white"/>
<path d="M1833.76 99.3951C1835.23 99.3951 1836.43 98.2046 1836.43 96.7361C1836.43 95.2676 1835.23 94.0771 1833.76 94.0771C1832.29 94.0771 1831.09 95.2676 1831.09 96.7361C1831.09 98.2046 1832.29 99.3951 1833.76 99.3951Z" fill="white"/>
<path d="M1859.17 96.7361C1859.17 98.2555 1858.02 99.3951 1856.5 99.3951C1854.98 99.3951 1853.83 98.2555 1853.83 96.7361C1853.83 95.2167 1854.98 94.0771 1856.5 94.0771C1857.9 94.0771 1859.17 95.2167 1859.17 96.7361Z" fill="white"/>
<path d="M1881.91 96.7361C1881.91 98.2555 1880.76 99.3951 1879.24 99.3951C1877.72 99.3951 1876.57 98.2555 1876.57 96.7361C1876.57 95.2167 1877.72 94.0771 1879.24 94.0771C1880.76 94.0771 1881.91 95.2167 1881.91 96.7361Z" fill="white"/>
<path d="M1904.52 96.7361C1904.52 98.2555 1903.38 99.3951 1901.85 99.3951C1900.33 99.3951 1899.18 98.2555 1899.18 96.7361C1899.18 95.2167 1900.33 94.0771 1901.85 94.0771C1903.38 94.0771 1904.52 95.2167 1904.52 96.7361Z" fill="white"/>
<path d="M1768.34 115.601C1768.34 117.121 1767.19 118.26 1765.67 118.26C1764.14 118.26 1763 117.121 1763 115.601C1763 114.082 1764.14 112.942 1765.67 112.942C1767.19 112.942 1768.34 114.082 1768.34 115.601Z" fill="white"/>
<path d="M1791.08 115.601C1791.08 117.121 1789.93 118.26 1788.41 118.26C1786.88 118.26 1785.74 117.121 1785.74 115.601C1785.74 114.082 1786.88 112.942 1788.41 112.942C1789.8 112.942 1791.08 114.082 1791.08 115.601Z" fill="white"/>
<path d="M1813.69 115.601C1813.69 117.121 1812.54 118.26 1811.02 118.26C1809.5 118.26 1808.35 117.121 1808.35 115.601C1808.35 114.082 1809.5 112.942 1811.02 112.942C1812.54 112.942 1813.69 114.082 1813.69 115.601Z" fill="white"/>
<path d="M1836.43 115.601C1836.43 117.121 1835.28 118.26 1833.76 118.26C1832.24 118.26 1831.09 117.121 1831.09 115.601C1831.09 114.082 1832.24 112.942 1833.76 112.942C1835.28 112.942 1836.43 114.082 1836.43 115.601Z" fill="white"/>
<path d="M1859.17 115.601C1859.17 117.121 1858.02 118.26 1856.5 118.26C1854.98 118.26 1853.83 117.121 1853.83 115.601C1853.83 114.082 1854.98 112.942 1856.5 112.942C1857.9 112.942 1859.17 114.082 1859.17 115.601Z" fill="white"/>
<path d="M1881.91 115.601C1881.91 117.121 1880.76 118.26 1879.24 118.26C1877.72 118.26 1876.57 117.121 1876.57 115.601C1876.57 114.082 1877.72 112.942 1879.24 112.942C1880.76 112.942 1881.91 114.082 1881.91 115.601Z" fill="white"/>
<path d="M1904.52 115.601C1904.52 117.121 1903.38 118.26 1901.85 118.26C1900.33 118.26 1899.18 117.121 1899.18 115.601C1899.18 114.082 1900.33 112.942 1901.85 112.942C1903.38 112.942 1904.52 114.082 1904.52 115.601Z" fill="white"/>
<path d="M1768.34 134.341C1768.34 135.86 1767.19 137 1765.67 137C1764.14 137 1763 135.86 1763 134.341C1763 132.821 1764.14 131.682 1765.67 131.682C1767.19 131.682 1768.34 132.948 1768.34 134.341Z" fill="white"/>
<path d="M1791.08 134.341C1791.08 135.86 1789.93 137 1788.41 137C1786.88 137 1785.74 135.86 1785.74 134.341C1785.74 132.821 1786.88 131.682 1788.41 131.682C1789.8 131.682 1791.08 132.948 1791.08 134.341Z" fill="white"/>
<path d="M1813.69 134.341C1813.69 135.86 1812.54 137 1811.02 137C1809.5 137 1808.35 135.86 1808.35 134.341C1808.35 132.821 1809.5 131.682 1811.02 131.682C1812.54 131.682 1813.69 132.948 1813.69 134.341Z" fill="white"/>
<path d="M1836.43 134.341C1836.43 135.86 1835.28 137 1833.76 137C1832.24 137 1831.09 135.86 1831.09 134.341C1831.09 132.821 1832.24 131.682 1833.76 131.682C1835.28 131.682 1836.43 132.948 1836.43 134.341Z" fill="white"/>
<path d="M1859.17 134.341C1859.17 135.86 1858.02 137 1856.5 137C1854.98 137 1853.83 135.86 1853.83 134.341C1853.83 132.821 1854.98 131.682 1856.5 131.682C1857.9 131.682 1859.17 132.948 1859.17 134.341Z" fill="white"/>
<path d="M1881.91 134.341C1881.91 135.86 1880.76 137 1879.24 137C1877.72 137 1876.57 135.86 1876.57 134.341C1876.57 132.821 1877.72 131.682 1879.24 131.682C1880.76 131.682 1881.91 132.948 1881.91 134.341Z" fill="white"/>
<path d="M1904.52 134.341C1904.52 135.86 1903.38 137 1901.85 137C1900.33 137 1899.18 135.86 1899.18 134.341C1899.18 132.821 1900.33 131.682 1901.85 131.682C1903.38 131.682 1904.52 132.948 1904.52 134.341Z" fill="white"/>
</g>
<g opacity="0.3">
<path d="M238.486 47.8902C249.205 47.8902 257.937 39.1647 257.937 28.4534C257.937 17.7422 249.205 9.01672 238.486 9.01672L238.486 47.8902Z" fill="white"/>
<path d="M208.141 47.8902C218.86 47.8902 227.592 39.1647 227.592 28.4534C227.592 17.7422 218.86 9.01672 208.141 9.01672L208.141 47.8902Z" fill="white"/>
<path d="M177.796 47.8901C188.516 47.8901 197.247 39.1647 197.247 28.4534C197.247 17.7422 188.516 9.01672 177.796 9.01672V47.8901Z" fill="white"/>
</g>
<defs>
<clipPath id="clip0_13085_2360">
<rect width="284" height="284" fill="white" transform="translate(-112 207)"/>
</clipPath>
</defs>
</svg>
