<svg width="1197" height="310" viewBox="0 0 1197 310" fill="none" xmlns="http://www.w3.org/2000/svg">
<g opacity="0.2">
<path d="M1129.95 -96.8984C1167.02 -96.8984 1197 -65.8893 1197 -27.556C1197 10.6823 1167.02 41.7865 1129.95 41.7865C1092.98 41.7865 1062.91 10.7774 1062.91 -27.556C1063 -65.8893 1092.98 -96.8984 1129.95 -96.8984ZM1129.95 37.3158C1164.63 37.3158 1192.68 8.30425 1192.68 -27.556C1192.68 -63.4162 1164.63 -92.4278 1129.95 -92.4278C1095.28 -92.4278 1067.23 -63.4162 1067.23 -27.556C1067.23 8.20912 1095.37 37.3158 1129.95 37.3158Z" fill="white"/>
<path d="M1129.95 -81.9648C1158.92 -81.9648 1182.47 -57.6141 1182.47 -27.6514C1182.47 2.31142 1158.92 26.6621 1129.95 26.6621C1100.98 26.6621 1077.44 2.40654 1077.44 -27.5562C1077.44 -57.6141 1100.98 -81.9649 1129.95 -81.9648ZM1129.95 18.3867C1154.51 18.3867 1174.47 -2.25433 1174.47 -27.6514C1174.47 -53.0484 1154.51 -73.6894 1129.95 -73.6894C1105.4 -73.6894 1085.44 -53.0484 1085.44 -27.6514C1085.44 -2.25434 1105.4 18.3867 1129.95 18.3867Z" fill="white"/>
</g>
<g opacity="0.8" clip-path="url(#clip0_13085_2361)">
<path d="M59.2038 285.839C59.2038 285.04 59.803 284.442 60.6019 284.442C61.4008 284.442 62 285.04 62 285.839C62 286.637 61.4008 287.236 60.6019 287.236C59.803 287.236 59.2038 286.571 59.2038 285.839Z" fill="white"/>
<path d="M47.2868 285.839C47.2868 285.04 47.886 284.442 48.6849 284.442C49.4838 284.442 50.083 285.04 50.083 285.839C50.083 286.637 49.4838 287.236 48.6849 287.236C47.9526 287.236 47.2868 286.571 47.2868 285.839Z" fill="white"/>
<path d="M35.4362 285.839C35.4362 285.04 36.0354 284.442 36.8343 284.442C37.6332 284.442 38.2324 285.04 38.2324 285.839C38.2324 286.637 37.6332 287.236 36.8343 287.236C36.0354 287.236 35.4362 286.571 35.4362 285.839Z" fill="white"/>
<path d="M23.519 285.839C23.519 285.04 24.1182 284.442 24.9171 284.442C25.716 284.442 26.3152 285.04 26.3152 285.839C26.3152 286.637 25.716 287.236 24.9171 287.236C24.1182 287.236 23.519 286.571 23.519 285.839Z" fill="white"/>
<path d="M11.602 285.839C11.602 285.04 12.2012 284.442 13.0001 284.442C13.799 284.442 14.3982 285.04 14.3982 285.839C14.3982 286.637 13.799 287.236 13.0001 287.236C12.2678 287.236 11.602 286.571 11.602 285.839Z" fill="white"/>
<path d="M-0.315472 285.839C-0.315471 285.04 0.28371 284.442 1.08262 284.442C1.88153 284.442 2.48071 285.04 2.48071 285.839C2.48071 286.637 1.88153 287.236 1.08262 287.236C0.28371 287.236 -0.315472 286.571 -0.315472 285.839Z" fill="white"/>
<path d="M59.2038 275.925C59.2038 275.126 59.803 274.527 60.6019 274.527C61.4008 274.527 62 275.126 62 275.925C62 276.723 61.4008 277.322 60.6019 277.322C59.803 277.322 59.2038 276.723 59.2038 275.925Z" fill="white"/>
<path d="M47.2868 275.925C47.2868 275.126 47.886 274.527 48.6849 274.527C49.4838 274.527 50.083 275.126 50.083 275.925C50.083 276.723 49.4838 277.322 48.6849 277.322C47.9526 277.322 47.2868 276.723 47.2868 275.925Z" fill="white"/>
<path d="M35.4362 275.925C35.4362 275.126 36.0354 274.527 36.8343 274.527C37.6332 274.527 38.2324 275.126 38.2324 275.925C38.2324 276.723 37.6332 277.322 36.8343 277.322C36.0354 277.322 35.4362 276.723 35.4362 275.925Z" fill="white"/>
<path d="M23.519 275.925C23.519 275.126 24.1182 274.527 24.9171 274.527C25.716 274.527 26.3152 275.126 26.3152 275.925C26.3152 276.723 25.716 277.322 24.9171 277.322C24.1182 277.322 23.519 276.723 23.519 275.925Z" fill="white"/>
<path d="M11.602 275.925C11.602 275.126 12.2012 274.527 13.0001 274.527C13.799 274.527 14.3982 275.126 14.3982 275.925C14.3982 276.723 13.799 277.322 13.0001 277.322C12.2678 277.322 11.602 276.723 11.602 275.925Z" fill="white"/>
<path d="M-0.315472 275.925C-0.315471 275.126 0.28371 274.527 1.08262 274.527C1.88153 274.527 2.48071 275.126 2.48071 275.925C2.48071 276.723 1.88153 277.322 1.08262 277.322C0.28371 277.322 -0.315472 276.723 -0.315472 275.925Z" fill="white"/>
<path d="M59.2038 305.603C59.2038 304.804 59.803 304.205 60.6019 304.205C61.4008 304.205 62 304.804 62 305.603C62 306.401 61.4008 307 60.6019 307C59.803 307 59.2038 306.401 59.2038 305.603Z" fill="white"/>
<path d="M47.2868 305.603C47.2868 304.804 47.886 304.205 48.6849 304.205C49.4838 304.205 50.083 304.804 50.083 305.603C50.083 306.401 49.4838 307 48.6849 307C47.9526 307 47.2868 306.401 47.2868 305.603Z" fill="white"/>
<path d="M35.4362 305.603C35.4362 304.804 36.0354 304.205 36.8343 304.205C37.6332 304.205 38.2324 304.804 38.2324 305.603C38.2324 306.401 37.5667 307 36.8343 307C36.0354 307 35.4362 306.401 35.4362 305.603Z" fill="white"/>
<path d="M23.519 305.603C23.519 304.804 24.1182 304.205 24.9171 304.205C25.716 304.205 26.3152 304.804 26.3152 305.603C26.3152 306.401 25.6494 307 24.9171 307C24.1848 307 23.519 306.401 23.519 305.603Z" fill="white"/>
<path d="M11.602 305.603C11.602 304.804 12.2012 304.205 13.0001 304.205C13.799 304.205 14.3982 304.804 14.3982 305.603C14.3982 306.401 13.799 307 13.0001 307C12.2678 307 11.602 306.401 11.602 305.603Z" fill="white"/>
<path d="M-0.315475 305.603C-0.315475 304.804 0.283707 304.205 1.08262 304.205C1.88153 304.205 2.48071 304.804 2.48071 305.603C2.48071 306.401 1.88153 307 1.08262 307C0.283707 307 -0.315475 306.401 -0.315475 305.603Z" fill="white"/>
<path d="M59.2038 295.689C59.2038 294.89 59.803 294.291 60.6019 294.291C61.4008 294.291 62 294.957 62 295.689C62 296.487 61.4008 297.086 60.6019 297.086C59.803 297.086 59.2038 296.487 59.2038 295.689Z" fill="white"/>
<path d="M47.2868 295.689C47.2868 294.89 47.886 294.291 48.6849 294.291C49.4838 294.291 50.083 294.89 50.083 295.689C50.083 296.487 49.4838 297.086 48.6849 297.086C47.9526 297.086 47.2868 296.487 47.2868 295.689Z" fill="white"/>
<path d="M35.4362 295.689C35.4362 294.89 36.0354 294.291 36.8343 294.291C37.6332 294.291 38.2324 294.89 38.2324 295.689C38.2324 296.487 37.6332 297.086 36.8343 297.086C36.0354 297.086 35.4362 296.487 35.4362 295.689Z" fill="white"/>
<path d="M23.519 295.689C23.519 294.89 24.1182 294.291 24.9171 294.291C25.716 294.291 26.3152 294.89 26.3152 295.689C26.3152 296.487 25.716 297.086 24.9171 297.086C24.1182 297.086 23.519 296.487 23.519 295.689Z" fill="white"/>
<path d="M11.602 295.689C11.602 294.89 12.2012 294.291 13.0001 294.291C13.799 294.291 14.3982 294.89 14.3982 295.689C14.3982 296.487 13.799 297.086 13.0001 297.086C12.2678 297.086 11.602 296.487 11.602 295.689Z" fill="white"/>
<path d="M-0.315472 295.689C-0.315471 294.89 0.28371 294.291 1.08262 294.291C1.88153 294.291 2.48071 294.89 2.48071 295.689C2.48071 296.487 1.88153 297.086 1.08262 297.086C0.28371 297.086 -0.315472 296.487 -0.315472 295.689Z" fill="white"/>
<path d="M59.2038 266.075C59.2038 265.277 59.803 264.678 60.6019 264.678C61.4008 264.678 62 265.277 62 266.075C62 266.874 61.4008 267.473 60.6019 267.473C59.803 267.473 59.2038 266.807 59.2038 266.075Z" fill="white"/>
<path d="M47.2868 266.075C47.2868 265.277 47.886 264.678 48.6849 264.678C49.4838 264.678 50.083 265.277 50.083 266.075C50.083 266.874 49.4838 267.473 48.6849 267.473C47.9526 267.473 47.2868 266.807 47.2868 266.075Z" fill="white"/>
<path d="M35.4362 266.075C35.4362 265.277 36.0354 264.678 36.8343 264.678C37.6332 264.678 38.2324 265.277 38.2324 266.075C38.2324 266.874 37.6332 267.473 36.8343 267.473C36.0354 267.473 35.4362 266.807 35.4362 266.075Z" fill="white"/>
<path d="M23.519 266.075C23.519 265.277 24.1182 264.678 24.9171 264.678C25.716 264.678 26.3152 265.277 26.3152 266.075C26.3152 266.874 25.716 267.473 24.9171 267.473C24.1182 267.473 23.519 266.807 23.519 266.075Z" fill="white"/>
<path d="M11.602 266.075C11.602 265.277 12.2012 264.678 13.0001 264.678C13.799 264.678 14.3982 265.277 14.3982 266.075C14.3982 266.874 13.799 267.473 13.0001 267.473C12.2678 267.473 11.602 266.807 11.602 266.075Z" fill="white"/>
<path d="M-0.315472 266.075C-0.315471 265.277 0.28371 264.678 1.08262 264.678C1.88153 264.678 2.48071 265.277 2.48071 266.075C2.48071 266.874 1.88153 267.473 1.08262 267.473C0.28371 267.473 -0.315472 266.807 -0.315472 266.075Z" fill="white"/>
<path d="M59.2038 256.161C59.2038 255.363 59.803 254.764 60.6019 254.764C61.4008 254.764 62 255.363 62 256.161C62 256.96 61.4008 257.559 60.6019 257.559C59.803 257.559 59.2038 256.96 59.2038 256.161Z" fill="white"/>
<path d="M47.2868 256.161C47.2868 255.363 47.886 254.764 48.6849 254.764C49.4838 254.764 50.083 255.363 50.083 256.161C50.083 256.96 49.4838 257.559 48.6849 257.559C47.9526 257.559 47.2868 256.96 47.2868 256.161Z" fill="white"/>
<path d="M35.4362 256.161C35.4362 255.363 36.0354 254.764 36.8343 254.764C37.6332 254.764 38.2324 255.363 38.2324 256.161C38.2324 256.96 37.6332 257.559 36.8343 257.559C36.0354 257.559 35.4362 256.96 35.4362 256.161Z" fill="white"/>
<path d="M24.9171 254.764C24.1449 254.764 23.519 255.389 23.519 256.161C23.519 256.933 24.1449 257.559 24.9171 257.559C25.6892 257.559 26.3152 256.933 26.3152 256.161C26.3152 255.389 25.6892 254.764 24.9171 254.764Z" fill="white"/>
<path d="M11.602 256.161C11.602 255.363 12.2012 254.764 13.0001 254.764C13.799 254.764 14.3982 255.363 14.3982 256.161C14.3982 256.96 13.799 257.559 13.0001 257.559C12.2678 257.559 11.602 256.96 11.602 256.161Z" fill="white"/>
<path d="M-0.315472 256.161C-0.315471 255.363 0.28371 254.764 1.08262 254.764C1.88153 254.764 2.48071 255.363 2.48071 256.161C2.48071 256.96 1.88153 257.559 1.08262 257.559C0.28371 257.559 -0.315472 256.96 -0.315472 256.161Z" fill="white"/>
<path d="M59.2038 246.245C59.2038 245.447 59.803 244.848 60.6019 244.848C61.4008 244.848 62 245.447 62 246.245C62 247.044 61.4008 247.643 60.6019 247.643C59.803 247.643 59.2038 247.044 59.2038 246.245Z" fill="white"/>
<path d="M47.2868 246.245C47.2868 245.447 47.886 244.848 48.6849 244.848C49.4838 244.848 50.083 245.447 50.083 246.245C50.083 247.044 49.4838 247.643 48.6849 247.643C47.9526 247.643 47.2868 247.044 47.2868 246.245Z" fill="white"/>
<path d="M35.4362 246.245C35.4362 245.447 36.0354 244.848 36.8343 244.848C37.6332 244.848 38.2324 245.447 38.2324 246.245C38.2324 247.044 37.6332 247.643 36.8343 247.643C36.0354 247.643 35.4362 247.044 35.4362 246.245Z" fill="white"/>
<path d="M23.519 246.245C23.519 245.447 24.1182 244.848 24.9171 244.848C25.716 244.848 26.3152 245.447 26.3152 246.245C26.3152 247.044 25.716 247.643 24.9171 247.643C24.1182 247.643 23.519 247.044 23.519 246.245Z" fill="white"/>
<path d="M11.602 246.245C11.602 245.447 12.2012 244.848 13.0001 244.848C13.799 244.848 14.3982 245.447 14.3982 246.245C14.3982 247.044 13.799 247.643 13.0001 247.643C12.2678 247.643 11.602 247.044 11.602 246.245Z" fill="white"/>
<path d="M-0.315472 246.245C-0.315471 245.447 0.28371 244.848 1.08262 244.848C1.88153 244.848 2.48071 245.447 2.48071 246.245C2.48071 247.044 1.88153 247.643 1.08262 247.643C0.28371 247.643 -0.315472 247.044 -0.315472 246.245Z" fill="white"/>
<path d="M59.2038 236.398C59.2038 235.599 59.803 235 60.6019 235C61.4008 235 62 235.599 62 236.398C62 237.196 61.4008 237.795 60.6019 237.795C59.803 237.795 59.2038 237.129 59.2038 236.398Z" fill="white"/>
<path d="M47.2868 236.398C47.2868 235.599 47.886 235 48.6849 235C49.4838 235 50.083 235.599 50.083 236.398C50.083 237.196 49.4838 237.795 48.6849 237.795C47.9526 237.795 47.2868 237.129 47.2868 236.398Z" fill="white"/>
<path d="M35.4362 236.398C35.4362 235.599 36.0354 235 36.8343 235C37.6332 235 38.2324 235.599 38.2324 236.398C38.2324 237.196 37.6332 237.795 36.8343 237.795C36.0354 237.795 35.4362 237.129 35.4362 236.398Z" fill="white"/>
<path d="M23.519 236.398C23.519 235.599 24.1182 235 24.9171 235C25.716 235 26.3152 235.599 26.3152 236.398C26.3152 237.196 25.716 237.795 24.9171 237.795C24.1182 237.795 23.519 237.129 23.519 236.398Z" fill="white"/>
<path d="M11.602 236.398C11.602 235.599 12.2012 235 13.0001 235C13.799 235 14.3982 235.599 14.3982 236.398C14.3982 237.196 13.799 237.795 13.0001 237.795C12.2678 237.795 11.602 237.129 11.602 236.398Z" fill="white"/>
<path d="M-0.315468 236.398C-0.315468 235.599 0.283713 235 1.08262 235C1.88153 235 2.48071 235.599 2.48071 236.398C2.48071 237.196 1.88153 237.795 1.08262 237.795C0.283713 237.795 -0.315468 237.129 -0.315468 236.398Z" fill="white"/>
</g>
<g opacity="0.3">
<path d="M410.126 278.912L410.126 270L434.004 270L434.004 293.811L425.024 293.811L425.024 278.912L410.126 278.912Z" fill="white"/>
<path d="M393.999 295.102L393.999 286.122L417.81 286.122L417.81 310L408.898 310L408.898 295.102L393.999 295.102Z" fill="white"/>
</g>
<defs>
<clipPath id="clip0_13085_2361">
<rect width="62" height="72" fill="white" transform="translate(62 307) rotate(-180)"/>
</clipPath>
</defs>
</svg>
