<svg width="1920" height="1120" viewBox="0 0 1920 1120" fill="none" xmlns="http://www.w3.org/2000/svg">
<g clip-path="url(#clip0_2492_19307)">
<g opacity="0.2">
<path d="M1802.79 1097.97L1808.91 1104.09L1792.52 1120.48L1776.17 1104.14L1782.34 1097.97L1792.56 1108.2L1802.79 1097.97Z" fill="#FFCF2D"/>
<path d="M1802.74 1075.79L1808.91 1081.95L1792.56 1098.3L1776.17 1081.91L1782.29 1075.79L1792.52 1086.02L1802.74 1075.79Z" fill="#FFCF2D"/>
<path d="M1802.79 1053.6L1808.96 1059.77L1792.56 1076.16L1776.17 1059.77L1782.34 1053.6L1792.56 1063.83L1802.79 1053.6Z" fill="#FFCF2D"/>
</g>
<g opacity="0.8" clip-path="url(#clip1_2492_19307)">
<path d="M6.83187 603.746C6.03981 604.538 4.84482 604.531 4.04356 603.73C3.2423 602.929 3.2354 601.734 4.02746 600.942C4.81953 600.15 6.01452 600.157 6.81578 600.958C7.55027 601.692 7.55793 603.02 6.83187 603.746Z" fill="#FFCF2D"/>
<path d="M18.7171 615.632C17.9251 616.424 16.7301 616.417 15.9288 615.616C15.1275 614.815 15.1207 613.62 15.9127 612.828C16.7048 612.035 17.8998 612.042 18.701 612.844C19.5023 613.645 19.4432 614.906 18.7171 615.632Z" fill="#FFCF2D"/>
<path d="M30.6693 627.584C29.8772 628.376 28.6822 628.369 27.881 627.568C27.0797 626.767 27.0728 625.572 27.8649 624.78C28.6569 623.988 29.8519 623.994 30.6532 624.796C31.4544 625.597 31.3953 626.858 30.6693 627.584Z" fill="#FFCF2D"/>
<path d="M42.6214 639.536C41.8293 640.328 40.6344 640.321 39.8331 639.52C39.0318 638.719 39.0249 637.524 39.817 636.732C40.6091 635.94 41.8041 635.947 42.6053 636.748C43.3398 637.482 43.3475 638.81 42.6214 639.536Z" fill="#FFCF2D"/>
<path d="M54.5736 651.487C53.7815 652.279 52.5865 652.273 51.7853 651.471C50.984 650.67 50.9771 649.475 51.7692 648.683C52.5612 647.891 53.7562 647.898 54.5575 648.699C55.3587 649.5 55.2996 650.761 54.5736 651.487Z" fill="#FFCF2D"/>
<path d="M66.4588 663.374C65.6668 664.166 64.4718 664.159 63.6705 663.358C62.8693 662.557 62.8624 661.362 63.6544 660.57C64.4465 659.778 65.6415 659.785 66.4427 660.586C67.244 661.387 67.1849 662.648 66.4588 663.374Z" fill="#FFCF2D"/>
<path d="M78.4112 675.325C77.6192 676.117 76.4242 676.11 75.6229 675.309C74.8216 674.508 74.8147 673.313 75.6068 672.521C76.3989 671.729 77.5939 671.736 78.3951 672.537C79.1964 673.338 79.1373 674.599 78.4112 675.325Z" fill="#FFCF2D"/>
<path d="M90.3631 687.278C89.571 688.07 88.3761 688.064 87.5748 687.262C86.7735 686.461 86.7666 685.266 87.5587 684.474C88.3508 683.682 89.5458 683.689 90.347 684.49C91.0815 685.225 91.0892 686.552 90.3631 687.278Z" fill="#FFCF2D"/>
<path d="M8.88216 625.467C8.0901 626.259 6.89511 626.252 6.09385 625.451C5.29259 624.65 5.28569 623.455 6.07776 622.662C6.86982 621.87 8.06481 621.877 8.86607 622.679C9.66733 623.48 9.67423 624.675 8.88216 625.467Z" fill="#FFCF2D"/>
<path d="M20.8346 637.419C20.0425 638.211 18.8475 638.204 18.0462 637.403C17.245 636.602 17.2381 635.407 18.0301 634.615C18.8222 633.823 20.0172 633.829 20.8185 634.631C21.6197 635.432 21.6266 636.627 20.8346 637.419Z" fill="#FFCF2D"/>
<path d="M32.7865 649.37C31.9944 650.162 30.7994 650.155 29.9981 649.354C29.1969 648.553 29.19 647.358 29.982 646.566C30.7741 645.774 31.9691 645.781 32.7704 646.582C33.5049 647.316 33.5785 648.578 32.7865 649.37Z" fill="#FFCF2D"/>
<path d="M44.7386 661.323C43.9465 662.115 42.7516 662.109 41.9503 661.307C41.149 660.506 41.1421 659.311 41.9342 658.519C42.7263 657.727 43.9213 657.734 44.7225 658.535C45.5238 659.336 45.5307 660.531 44.7386 661.323Z" fill="#FFCF2D"/>
<path d="M56.6241 673.208C55.832 674 54.6371 673.993 53.8358 673.192C53.0345 672.391 53.0276 671.196 53.8197 670.404C54.6118 669.612 55.8068 669.619 56.608 670.42C57.4093 671.221 57.4162 672.416 56.6241 673.208Z" fill="#FFCF2D"/>
<path d="M68.5763 685.161C67.7842 685.953 66.5892 685.946 65.7879 685.145C64.9867 684.344 64.9798 683.149 65.7718 682.357C66.5639 681.565 67.7589 681.572 68.5602 682.373C69.3614 683.174 69.3683 684.369 68.5763 685.161Z" fill="#FFCF2D"/>
<path d="M80.5284 697.112C79.7363 697.904 78.5413 697.898 77.7401 697.096C76.9388 696.295 76.9319 695.1 77.724 694.308C78.5161 693.516 79.7111 693.523 80.5123 694.324C81.2468 695.059 81.3205 696.32 80.5284 697.112Z" fill="#FFCF2D"/>
<path d="M14.4832 572.191C13.6912 572.983 12.4962 572.976 11.6949 572.174C10.8937 571.373 10.8868 570.178 11.6788 569.386C12.4709 568.594 13.6659 568.601 14.4671 569.402C15.2684 570.203 15.2753 571.398 14.4832 572.191Z" fill="#FFCF2D"/>
<path d="M26.4354 584.143C25.6433 584.935 24.4483 584.928 23.6471 584.127C22.8458 583.325 22.8389 582.13 23.631 581.338C24.423 580.546 25.618 580.553 26.4193 581.354C27.1538 582.089 27.2274 583.351 26.4354 584.143Z" fill="#FFCF2D"/>
<path d="M38.3206 596.028C37.5286 596.82 36.3336 596.814 35.5323 596.012C34.7311 595.211 34.7242 594.016 35.5162 593.224C36.3083 592.432 37.5701 592.506 38.3045 593.24C39.1058 594.041 39.1127 595.236 38.3206 596.028Z" fill="#FFCF2D"/>
<path d="M50.2728 607.981C49.4807 608.773 48.2857 608.766 47.4845 607.964C46.6832 607.163 46.6763 605.968 47.4684 605.176C48.2604 604.384 49.5222 604.458 50.2567 605.192C50.9912 605.927 51.0648 607.188 50.2728 607.981Z" fill="#FFCF2D"/>
<path d="M62.2249 619.933C61.4329 620.725 60.2379 620.718 59.4366 619.917C58.6354 619.115 58.6285 617.92 59.4205 617.128C60.2126 616.336 61.4076 616.343 62.2088 617.144C62.9433 617.879 63.017 619.141 62.2249 619.933Z" fill="#FFCF2D"/>
<path d="M74.1771 631.884C73.385 632.676 72.19 632.669 71.3888 631.868C70.5875 631.067 70.5806 629.872 71.3727 629.079C72.1647 628.287 73.3597 628.294 74.161 629.096C74.9623 629.897 74.9692 631.092 74.1771 631.884Z" fill="#FFCF2D"/>
<path d="M86.0626 643.771C85.2705 644.563 84.0755 644.556 83.2743 643.755C82.473 642.953 82.4661 641.758 83.2582 640.966C84.0502 640.174 85.2452 640.181 86.0465 640.982C86.8478 641.784 86.8546 642.979 86.0626 643.771Z" fill="#FFCF2D"/>
<path d="M98.0147 655.722C97.2227 656.514 96.0277 656.507 95.2264 655.706C94.4252 654.904 94.4183 653.709 95.2103 652.917C96.0024 652.125 97.1974 652.132 97.9986 652.933C98.7999 653.735 98.8068 654.93 98.0147 655.722Z" fill="#FFCF2D"/>
<path d="M109.967 667.675C109.175 668.467 107.98 668.46 107.178 667.659C106.377 666.858 106.37 665.663 107.162 664.87C107.954 664.078 109.149 664.085 109.951 664.887C110.685 665.621 110.759 666.883 109.967 667.675Z" fill="#FFCF2D"/>
<path d="M4.64852 582.025C3.85646 582.818 2.66146 582.811 1.8602 582.009C1.05894 581.208 1.11805 579.947 1.84411 579.221C2.63618 578.429 3.83117 578.436 4.63243 579.237C5.43369 580.038 5.44058 581.233 4.64852 582.025Z" fill="#FFCF2D"/>
<path d="M16.6007 593.978C15.8086 594.77 14.6136 594.763 13.8124 593.962C13.0111 593.16 13.0042 591.965 13.7963 591.173C14.5883 590.381 15.7833 590.388 16.5846 591.189C17.3191 591.924 17.3927 593.186 16.6007 593.978Z" fill="#FFCF2D"/>
<path d="M28.4859 605.862C27.6939 606.654 26.4989 606.648 25.6976 605.846C24.8963 605.045 24.8894 603.85 25.6815 603.058C26.4736 602.266 27.6686 602.273 28.4698 603.074C29.2711 603.875 29.278 605.07 28.4859 605.862Z" fill="#FFCF2D"/>
<path d="M40.4383 617.815C39.6462 618.607 38.4513 618.6 37.65 617.798C36.8487 616.997 36.8418 615.802 37.6339 615.01C38.426 614.218 39.621 614.225 40.4222 615.026C41.2235 615.827 41.2304 617.022 40.4383 617.815Z" fill="#FFCF2D"/>
<path d="M52.3902 629.767C51.5981 630.559 50.4032 630.552 49.6019 629.751C48.8006 628.949 48.7937 627.754 49.5858 626.962C50.3779 626.17 51.5729 626.177 52.3741 626.978C53.1086 627.713 53.1823 628.975 52.3902 629.767Z" fill="#FFCF2D"/>
<path d="M64.3424 641.72C63.5503 642.512 62.3553 642.505 61.5541 641.704C60.7528 640.902 60.7459 639.707 61.538 638.915C62.33 638.123 63.525 638.13 64.3263 638.932C65.1275 639.733 65.1344 640.928 64.3424 641.72Z" fill="#FFCF2D"/>
<path d="M76.2276 653.605C75.4356 654.397 74.2406 654.39 73.4393 653.588C72.6381 652.787 72.6312 651.592 73.4232 650.8C74.2153 650.008 75.4103 650.015 76.2115 650.816C77.0128 651.618 77.0197 652.813 76.2276 653.605Z" fill="#FFCF2D"/>
<path d="M88.18 665.556C87.388 666.348 86.193 666.341 85.3917 665.54C84.5904 664.738 84.5835 663.543 85.3756 662.751C86.1677 661.959 87.3627 661.966 88.1639 662.767C88.9652 663.569 88.9721 664.764 88.18 665.556Z" fill="#FFCF2D"/>
<path d="M100.132 677.509C99.3398 678.301 98.1449 678.294 97.3436 677.493C96.5423 676.692 96.5354 675.497 97.3275 674.704C98.1196 673.912 99.3146 673.919 100.116 674.721C100.85 675.455 100.924 676.717 100.132 677.509Z" fill="#FFCF2D"/>
<path d="M-0.886637 635.235C-1.6787 636.028 -2.87369 636.021 -3.67495 635.219C-4.47621 634.418 -4.48311 633.223 -3.69104 632.431C-2.89898 631.639 -1.70399 631.646 -0.90273 632.447C-0.10147 633.248 -0.160578 634.509 -0.886637 635.235Z" fill="#FFCF2D"/>
<path d="M11.0655 647.187C10.2734 647.979 9.07845 647.972 8.2772 647.171C7.47594 646.369 7.46904 645.174 8.2611 644.382C9.05317 643.59 10.2482 643.597 11.0494 644.398C11.8507 645.2 11.7916 646.461 11.0655 647.187Z" fill="#FFCF2D"/>
<path d="M23.0177 659.14C22.2256 659.932 21.0306 659.925 20.2293 659.124C19.4281 658.322 19.4212 657.127 20.2133 656.335C21.0053 655.543 22.2003 655.55 23.0016 656.351C23.7361 657.086 23.7437 658.414 23.0177 659.14Z" fill="#FFCF2D"/>
<path d="M34.9698 671.091C34.1778 671.883 32.9828 671.876 32.1815 671.075C31.3802 670.274 31.3733 669.079 32.1654 668.287C32.9575 667.494 34.1525 667.501 34.9537 668.303C35.755 669.104 35.6959 670.365 34.9698 671.091Z" fill="#FFCF2D"/>
<path d="M46.8551 682.978C46.063 683.77 44.868 683.763 44.0668 682.962C43.2655 682.16 43.2586 680.965 44.0507 680.173C44.8427 679.381 46.0377 679.388 46.839 680.189C47.6402 680.991 47.5811 682.252 46.8551 682.978Z" fill="#FFCF2D"/>
<path d="M58.8075 694.929C58.0154 695.721 56.8204 695.714 56.0191 694.913C55.2179 694.111 55.211 692.916 56.0031 692.124C56.7951 691.332 57.9901 691.339 58.7914 692.14C59.5926 692.942 59.5335 694.203 58.8075 694.929Z" fill="#FFCF2D"/>
<path d="M70.7594 706.882C69.9673 707.674 68.7723 707.667 67.971 706.866C67.1698 706.065 67.1629 704.87 67.955 704.078C68.747 703.285 69.942 703.292 70.7433 704.094C71.4778 704.828 71.4854 706.156 70.7594 706.882Z" fill="#FFCF2D"/>
<path d="M-1.55752 657.006C-0.783101 657.781 0.465267 657.788 1.23079 657.023C1.99632 656.257 1.98912 655.009 1.2147 654.234C0.440289 653.46 -0.808082 653.453 -1.57361 654.218C-2.33914 654.984 -2.33193 656.232 -1.55752 657.006Z" fill="#FFCF2D"/>
<path d="M13.1832 668.974C12.3911 669.766 11.1961 669.759 10.3949 668.958C9.59362 668.156 9.58672 666.961 10.3788 666.169C11.1708 665.377 12.3658 665.384 13.1671 666.185C13.9016 666.92 13.9753 668.182 13.1832 668.974Z" fill="#FFCF2D"/>
<path d="M25.1351 680.927C24.343 681.719 23.148 681.712 22.3468 680.911C21.5455 680.109 21.5386 678.915 22.3307 678.122C23.1228 677.33 24.3177 677.337 25.119 678.139C25.9203 678.94 25.9272 680.135 25.1351 680.927Z" fill="#FFCF2D"/>
<path d="M37.0206 692.812C36.2285 693.604 35.0335 693.597 34.2323 692.796C33.431 691.994 33.4241 690.799 34.2162 690.007C35.0082 689.215 36.2032 689.222 37.0045 690.023C37.8058 690.825 37.8127 692.02 37.0206 692.812Z" fill="#FFCF2D"/>
<path d="M46.1844 704.749C46.9588 705.523 48.2072 705.53 48.9727 704.765C49.7383 703.999 49.7311 702.751 48.9566 701.976C48.1822 701.202 46.9339 701.195 46.1683 701.96C45.4028 702.726 45.41 703.974 46.1844 704.749Z" fill="#FFCF2D"/>
<path d="M60.9249 716.716C60.1328 717.508 58.9378 717.501 58.1366 716.7C57.3353 715.899 57.3284 714.704 58.1205 713.911C58.9125 713.119 60.1075 713.126 60.9088 713.928C61.6433 714.662 61.717 715.924 60.9249 716.716Z" fill="#FFCF2D"/>
<path d="M3.34798 678.81C2.55592 679.602 1.36093 679.595 0.559671 678.794C-0.241588 677.992 -0.248486 676.797 0.543576 676.005C1.33564 675.213 2.53063 675.22 3.33189 676.021C4.06638 676.756 4.14004 678.018 3.34798 678.81Z" fill="#FFCF2D"/>
<path d="M15.3001 690.761C14.5081 691.553 13.3131 691.546 12.5118 690.745C11.7106 689.943 11.7037 688.748 12.4957 687.956C13.2878 687.164 14.4828 687.171 15.284 687.973C16.0853 688.774 16.0922 689.969 15.3001 690.761Z" fill="#FFCF2D"/>
<path d="M27.1854 702.648C26.3933 703.44 25.1983 703.433 24.3971 702.631C23.5958 701.83 23.5889 700.635 24.381 699.843C25.173 699.051 26.368 699.058 27.1693 699.859C27.9706 700.661 27.9775 701.855 27.1854 702.648Z" fill="#FFCF2D"/>
<path d="M39.1375 714.599C38.3455 715.391 37.1505 715.384 36.3492 714.583C35.548 713.781 35.5411 712.586 36.3331 711.794C37.1252 711.002 38.3202 711.009 39.1214 711.81C39.9227 712.612 39.9296 713.807 39.1375 714.599Z" fill="#FFCF2D"/>
<path d="M51.0897 726.552C50.2976 727.344 49.1026 727.337 48.3014 726.536C47.5001 725.734 47.4932 724.54 48.2853 723.747C49.0773 722.955 50.2723 722.962 51.0736 723.764C51.8081 724.498 51.8817 725.76 51.0897 726.552Z" fill="#FFCF2D"/>
<path d="M5.53158 700.53C4.73951 701.322 3.54452 701.316 2.74326 700.514C1.94201 699.713 1.93511 698.518 2.72717 697.726C3.51924 696.934 4.71422 696.941 5.51548 697.742C6.31674 698.543 6.25763 699.804 5.53158 700.53Z" fill="#FFCF2D"/>
<path d="M17.4171 712.415C16.625 713.207 15.43 713.2 14.6288 712.399C13.8275 711.598 13.8206 710.403 14.6127 709.611C15.4047 708.819 16.5997 708.826 17.401 709.627C18.2022 710.428 18.1431 711.689 17.4171 712.415Z" fill="#FFCF2D"/>
<path d="M29.3692 724.368C28.5772 725.16 27.3822 725.153 26.5809 724.352C25.7797 723.551 25.7728 722.356 26.5648 721.564C27.3569 720.772 28.5519 720.779 29.3531 721.58C30.1544 722.381 30.0953 723.642 29.3692 724.368Z" fill="#FFCF2D"/>
<path d="M41.3214 736.319C40.5293 737.111 39.3343 737.105 38.5331 736.303C37.7318 735.502 37.7249 734.307 38.517 733.515C39.309 732.723 40.504 732.73 41.3053 733.531C42.0398 734.266 42.0474 735.593 41.3214 736.319Z" fill="#FFCF2D"/>
</g>
<g opacity="0.2">
<path d="M1732.02 95.9009C1741.31 90.5413 1744.51 78.6189 1739.15 69.3427C1733.79 60.0665 1721.87 56.8759 1712.59 62.2355L1732.02 95.9009Z" fill="#FFCF2D"/>
<path d="M1705.74 111.074C1715.03 105.714 1718.23 93.7918 1712.87 84.5155C1707.52 75.2393 1695.59 72.0488 1686.31 77.4083L1705.74 111.074Z" fill="#FFCF2D"/>
<path d="M1679.46 126.246C1688.75 120.886 1691.95 108.964 1686.59 99.6874C1681.24 90.4112 1669.31 87.2207 1660.03 92.5802L1679.46 126.246Z" fill="#FFCF2D"/>
</g>
<g opacity="0.12" clip-path="url(#clip2_2492_19307)">
<path d="M316.083 0C249.147 0 195 54.1469 195 121.083C195 187.853 249.147 242.166 316.083 242.166C382.853 242.166 437.166 188.019 437.166 121.083C437 54.1469 382.853 0 316.083 0ZM316.083 234.36C253.465 234.36 202.806 183.701 202.806 121.083C202.806 58.4653 253.465 7.80645 316.083 7.80645C378.701 7.80645 429.36 58.4653 429.36 121.083C429.36 183.535 378.535 234.36 316.083 234.36Z" fill="#FFCF2D"/>
<path d="M316.083 26.0762C263.763 26.0762 221.243 68.5964 221.243 120.916C221.243 173.236 263.763 215.756 316.083 215.756C368.403 215.756 410.923 173.402 410.923 121.082C410.923 68.5964 368.403 26.0762 316.083 26.0762ZM316.083 201.306C271.736 201.306 235.693 165.264 235.693 120.916C235.693 76.569 271.736 40.5264 316.083 40.5264C360.431 40.5264 396.473 76.569 396.473 120.916C396.473 165.264 360.431 201.306 316.083 201.306Z" fill="#FFCF2D"/>
</g>
</g>
<defs>
<clipPath id="clip0_2492_19307">
<rect width="1920" height="1120" fill="white"/>
</clipPath>
<clipPath id="clip1_2492_19307">
<rect width="139" height="101" fill="white" transform="translate(13.0649 568) rotate(45)"/>
</clipPath>
<clipPath id="clip2_2492_19307">
<rect width="242" height="242" fill="white" transform="translate(195)"/>
</clipPath>
</defs>
</svg>
