<svg width="1845" height="1535" viewBox="0 0 1845 1535" fill="none" xmlns="http://www.w3.org/2000/svg">
<g opacity="0.4" clip-path="url(#clip0_13082_2359)">
<path d="M1842.09 1372C1770.73 1372 1713 1429.73 1713 1501.09C1713 1572.27 1770.73 1630.18 1842.09 1630.18C1913.27 1630.18 1971.18 1572.45 1971.18 1501.09C1971 1429.73 1913.27 1372 1842.09 1372ZM1842.09 1621.85C1775.33 1621.85 1721.32 1567.85 1721.32 1501.09C1721.32 1434.33 1775.33 1380.32 1842.09 1380.32C1908.85 1380.32 1962.85 1434.33 1962.85 1501.09C1962.85 1567.67 1908.67 1621.85 1842.09 1621.85Z" fill="white"/>
<path d="M1842.09 1399.8C1786.31 1399.8 1740.98 1445.13 1740.98 1500.91C1740.98 1556.69 1786.31 1602.02 1842.09 1602.02C1897.87 1602.02 1943.2 1556.87 1943.2 1501.09C1943.2 1445.13 1897.87 1399.8 1842.09 1399.8ZM1842.09 1586.62C1794.81 1586.62 1756.38 1548.19 1756.38 1500.91C1756.38 1453.63 1794.81 1415.21 1842.09 1415.21C1889.37 1415.21 1927.79 1453.63 1927.79 1500.91C1927.79 1548.19 1889.37 1586.62 1842.09 1586.62Z" fill="white"/>
</g>
<path d="M272.08 1362.86C272.08 1364.02 271.206 1364.9 270.04 1364.9C268.874 1364.9 268 1364.02 268 1362.86C268 1361.7 268.874 1360.82 270.04 1360.82C271.206 1360.82 272.08 1361.79 272.08 1362.86Z" fill="white"/>
<path d="M289.469 1362.86C289.469 1364.02 288.595 1364.9 287.429 1364.9C286.263 1364.9 285.389 1364.02 285.389 1362.86C285.389 1361.7 286.263 1360.82 287.429 1360.82C288.498 1360.82 289.469 1361.79 289.469 1362.86Z" fill="white"/>
<path d="M306.762 1362.86C306.762 1364.02 305.887 1364.9 304.722 1364.9C303.556 1364.9 302.682 1364.02 302.682 1362.86C302.682 1361.7 303.556 1360.82 304.722 1360.82C305.887 1360.82 306.762 1361.79 306.762 1362.86Z" fill="white"/>
<path d="M324.151 1362.86C324.151 1364.02 323.277 1364.9 322.111 1364.9C320.945 1364.9 320.071 1364.02 320.071 1362.86C320.071 1361.7 320.945 1360.82 322.111 1360.82C323.277 1360.82 324.151 1361.79 324.151 1362.86Z" fill="white"/>
<path d="M341.54 1362.86C341.54 1364.02 340.666 1364.9 339.5 1364.9C338.334 1364.9 337.46 1364.02 337.46 1362.86C337.46 1361.7 338.334 1360.82 339.5 1360.82C340.569 1360.82 341.54 1361.79 341.54 1362.86Z" fill="white"/>
<path d="M358.929 1362.86C358.929 1364.02 358.055 1364.9 356.889 1364.9C355.723 1364.9 354.849 1364.02 354.849 1362.86C354.849 1361.7 355.723 1360.82 356.889 1360.82C358.055 1360.82 358.929 1361.79 358.929 1362.86Z" fill="white"/>
<path d="M376.222 1362.86C376.222 1364.02 375.347 1364.9 374.182 1364.9C373.016 1364.9 372.142 1364.02 372.142 1362.86C372.142 1361.7 373.016 1360.82 374.182 1360.82C375.347 1360.82 376.222 1361.79 376.222 1362.86Z" fill="white"/>
<path d="M393.611 1362.86C393.611 1364.02 392.737 1364.9 391.571 1364.9C390.405 1364.9 389.531 1364.02 389.531 1362.86C389.531 1361.7 390.405 1360.82 391.571 1360.82C392.737 1360.82 393.611 1361.79 393.611 1362.86Z" fill="white"/>
<path d="M411 1362.86C411 1364.02 410.126 1364.9 408.96 1364.9C407.794 1364.9 406.92 1364.02 406.92 1362.86C406.92 1361.7 407.794 1360.82 408.96 1360.82C410.029 1360.82 411 1361.79 411 1362.86Z" fill="white"/>
<path d="M272.08 1377.32C272.08 1378.48 271.206 1379.36 270.04 1379.36C268.874 1379.36 268 1378.48 268 1377.32C268 1376.15 268.874 1375.28 270.04 1375.28C271.206 1375.28 272.08 1376.15 272.08 1377.32Z" fill="white"/>
<path d="M289.469 1377.32C289.469 1378.48 288.595 1379.36 287.429 1379.36C286.263 1379.36 285.389 1378.48 285.389 1377.32C285.389 1376.15 286.263 1375.28 287.429 1375.28C288.498 1375.28 289.469 1376.15 289.469 1377.32Z" fill="white"/>
<path d="M306.762 1377.32C306.762 1378.48 305.887 1379.36 304.722 1379.36C303.556 1379.36 302.682 1378.48 302.682 1377.32C302.682 1376.15 303.556 1375.28 304.722 1375.28C305.887 1375.28 306.762 1376.15 306.762 1377.32Z" fill="white"/>
<path d="M324.151 1377.32C324.151 1378.48 323.277 1379.36 322.111 1379.36C320.945 1379.36 320.071 1378.48 320.071 1377.32C320.071 1376.15 320.945 1375.28 322.111 1375.28C323.277 1375.28 324.151 1376.15 324.151 1377.32Z" fill="white"/>
<path d="M341.54 1377.32C341.54 1378.48 340.666 1379.36 339.5 1379.36C338.334 1379.36 337.46 1378.48 337.46 1377.32C337.46 1376.15 338.334 1375.28 339.5 1375.28C340.569 1375.28 341.54 1376.15 341.54 1377.32Z" fill="white"/>
<path d="M358.929 1377.32C358.929 1378.48 358.055 1379.36 356.889 1379.36C355.723 1379.36 354.849 1378.48 354.849 1377.32C354.849 1376.15 355.723 1375.28 356.889 1375.28C358.055 1375.28 358.929 1376.15 358.929 1377.32Z" fill="white"/>
<path d="M376.222 1377.32C376.222 1378.48 375.347 1379.36 374.182 1379.36C373.016 1379.36 372.142 1378.48 372.142 1377.32C372.142 1376.15 373.016 1375.28 374.182 1375.28C375.347 1375.28 376.222 1376.15 376.222 1377.32Z" fill="white"/>
<path d="M393.611 1377.32C393.611 1378.48 392.737 1379.36 391.571 1379.36C390.405 1379.36 389.531 1378.48 389.531 1377.32C389.531 1376.15 390.405 1375.28 391.571 1375.28C392.737 1375.28 393.611 1376.15 393.611 1377.32Z" fill="white"/>
<path d="M411 1377.32C411 1378.48 410.126 1379.36 408.96 1379.36C407.794 1379.36 406.92 1378.48 406.92 1377.32C406.92 1376.15 407.794 1375.28 408.96 1375.28C410.029 1375.28 411 1376.15 411 1377.32Z" fill="white"/>
<path d="M272.08 1334.04C272.08 1335.2 271.206 1336.08 270.04 1336.08C268.874 1336.08 268 1335.2 268 1334.04C268 1332.87 268.874 1332 270.04 1332C271.206 1332 272.08 1332.87 272.08 1334.04Z" fill="white"/>
<path d="M289.469 1334.04C289.469 1335.2 288.595 1336.08 287.429 1336.08C286.263 1336.08 285.389 1335.2 285.389 1334.04C285.389 1332.87 286.263 1332 287.429 1332C288.498 1332 289.469 1332.87 289.469 1334.04Z" fill="white"/>
<path d="M306.762 1334.04C306.762 1335.2 305.887 1336.08 304.722 1336.08C303.556 1336.08 302.682 1335.2 302.682 1334.04C302.682 1332.87 303.653 1332 304.722 1332C305.887 1332 306.762 1332.87 306.762 1334.04Z" fill="white"/>
<path d="M324.151 1334.04C324.151 1335.2 323.277 1336.08 322.111 1336.08C320.945 1336.08 320.071 1335.2 320.071 1334.04C320.071 1332.87 321.042 1332 322.111 1332C323.179 1332 324.151 1332.87 324.151 1334.04Z" fill="white"/>
<path d="M341.54 1334.04C341.54 1335.2 340.666 1336.08 339.5 1336.08C338.334 1336.08 337.46 1335.2 337.46 1334.04C337.46 1332.87 338.334 1332 339.5 1332C340.569 1332 341.54 1332.87 341.54 1334.04Z" fill="white"/>
<path d="M358.929 1334.04C358.929 1335.2 358.055 1336.08 356.889 1336.08C355.723 1336.08 354.849 1335.2 354.849 1334.04C354.849 1332.87 355.723 1332 356.889 1332C358.055 1332 358.929 1332.87 358.929 1334.04Z" fill="white"/>
<path d="M376.222 1334.04C376.222 1335.2 375.347 1336.08 374.182 1336.08C373.016 1336.08 372.142 1335.2 372.142 1334.04C372.142 1332.87 373.016 1332 374.182 1332C375.347 1332 376.222 1332.87 376.222 1334.04Z" fill="white"/>
<path d="M393.611 1334.04C393.611 1335.2 392.737 1336.08 391.571 1336.08C390.405 1336.08 389.531 1335.2 389.531 1334.04C389.531 1332.87 390.405 1332 391.571 1332C392.737 1332 393.611 1332.87 393.611 1334.04Z" fill="white"/>
<path d="M411 1334.04C411 1335.2 410.126 1336.08 408.96 1336.08C407.794 1336.08 406.92 1335.2 406.92 1334.04C406.92 1332.87 407.794 1332 408.96 1332C410.029 1332 411 1332.87 411 1334.04Z" fill="white"/>
<path d="M272.08 1348.5C272.08 1349.66 271.206 1350.53 270.04 1350.53C268.874 1350.53 268 1349.56 268 1348.5C268 1347.33 268.874 1346.46 270.04 1346.46C271.206 1346.46 272.08 1347.33 272.08 1348.5Z" fill="white"/>
<path d="M289.469 1348.5C289.469 1349.66 288.595 1350.53 287.429 1350.53C286.263 1350.53 285.389 1349.66 285.389 1348.5C285.389 1347.33 286.263 1346.46 287.429 1346.46C288.498 1346.46 289.469 1347.33 289.469 1348.5Z" fill="white"/>
<path d="M306.762 1348.5C306.762 1349.66 305.887 1350.53 304.722 1350.53C303.556 1350.53 302.682 1349.66 302.682 1348.5C302.682 1347.33 303.556 1346.46 304.722 1346.46C305.887 1346.46 306.762 1347.33 306.762 1348.5Z" fill="white"/>
<path d="M324.151 1348.5C324.151 1349.66 323.277 1350.53 322.111 1350.53C320.945 1350.53 320.071 1349.66 320.071 1348.5C320.071 1347.33 320.945 1346.46 322.111 1346.46C323.277 1346.46 324.151 1347.33 324.151 1348.5Z" fill="white"/>
<path d="M341.54 1348.5C341.54 1349.66 340.666 1350.53 339.5 1350.53C338.334 1350.53 337.46 1349.66 337.46 1348.5C337.46 1347.33 338.334 1346.46 339.5 1346.46C340.569 1346.46 341.54 1347.33 341.54 1348.5Z" fill="white"/>
<path d="M358.929 1348.5C358.929 1349.66 358.055 1350.53 356.889 1350.53C355.723 1350.53 354.849 1349.66 354.849 1348.5C354.849 1347.33 355.723 1346.46 356.889 1346.46C358.055 1346.46 358.929 1347.33 358.929 1348.5Z" fill="white"/>
<path d="M376.222 1348.5C376.222 1349.66 375.347 1350.53 374.182 1350.53C373.016 1350.53 372.142 1349.66 372.142 1348.5C372.142 1347.33 373.016 1346.46 374.182 1346.46C375.347 1346.46 376.222 1347.33 376.222 1348.5Z" fill="white"/>
<path d="M393.611 1348.5C393.611 1349.66 392.737 1350.53 391.571 1350.53C390.405 1350.53 389.531 1349.66 389.531 1348.5C389.531 1347.33 390.405 1346.46 391.571 1346.46C392.737 1346.46 393.611 1347.33 393.611 1348.5Z" fill="white"/>
<path d="M411 1348.5C411 1349.66 410.126 1350.53 408.96 1350.53C407.794 1350.53 406.92 1349.66 406.92 1348.5C406.92 1347.33 407.794 1346.46 408.96 1346.46C410.029 1346.46 411 1347.33 411 1348.5Z" fill="white"/>
<path d="M272.08 1391.68C272.08 1392.84 271.206 1393.72 270.04 1393.72C268.874 1393.72 268 1392.84 268 1391.68C268 1390.52 268.874 1389.64 270.04 1389.64C271.206 1389.64 272.08 1390.61 272.08 1391.68Z" fill="white"/>
<path d="M289.469 1391.68C289.469 1392.84 288.595 1393.72 287.429 1393.72C286.263 1393.72 285.389 1392.84 285.389 1391.68C285.389 1390.52 286.263 1389.64 287.429 1389.64C288.498 1389.64 289.469 1390.61 289.469 1391.68Z" fill="white"/>
<path d="M306.762 1391.68C306.762 1392.84 305.887 1393.72 304.722 1393.72C303.556 1393.72 302.682 1392.84 302.682 1391.68C302.682 1390.52 303.556 1389.64 304.722 1389.64C305.887 1389.64 306.762 1390.61 306.762 1391.68Z" fill="white"/>
<path d="M324.151 1391.68C324.151 1392.84 323.277 1393.72 322.111 1393.72C320.945 1393.72 320.071 1392.84 320.071 1391.68C320.071 1390.52 320.945 1389.64 322.111 1389.64C323.277 1389.64 324.151 1390.61 324.151 1391.68Z" fill="white"/>
<path d="M341.54 1391.68C341.54 1392.84 340.666 1393.72 339.5 1393.72C338.334 1393.72 337.46 1392.84 337.46 1391.68C337.46 1390.52 338.334 1389.64 339.5 1389.64C340.569 1389.64 341.54 1390.61 341.54 1391.68Z" fill="white"/>
<path d="M358.929 1391.68C358.929 1392.84 358.055 1393.72 356.889 1393.72C355.723 1393.72 354.849 1392.84 354.849 1391.68C354.849 1390.52 355.723 1389.64 356.889 1389.64C358.055 1389.64 358.929 1390.61 358.929 1391.68Z" fill="white"/>
<path d="M376.222 1391.68C376.222 1392.84 375.347 1393.72 374.182 1393.72C373.016 1393.72 372.142 1392.84 372.142 1391.68C372.142 1390.52 373.016 1389.64 374.182 1389.64C375.347 1389.64 376.222 1390.61 376.222 1391.68Z" fill="white"/>
<path d="M393.611 1391.68C393.611 1392.84 392.737 1393.72 391.571 1393.72C390.405 1393.72 389.531 1392.84 389.531 1391.68C389.531 1390.52 390.405 1389.64 391.571 1389.64C392.737 1389.64 393.611 1390.61 393.611 1391.68Z" fill="white"/>
<path d="M411 1391.68C411 1392.84 410.126 1393.72 408.96 1393.72C407.794 1393.72 406.92 1392.84 406.92 1391.68C406.92 1390.52 407.794 1389.64 408.96 1389.64C410.029 1389.64 411 1390.61 411 1391.68Z" fill="white"/>
<path d="M272.08 1406.14C272.08 1407.3 271.206 1408.18 270.04 1408.18C268.874 1408.18 268 1407.3 268 1406.14C268 1404.97 268.874 1404.1 270.04 1404.1C271.206 1404.1 272.08 1404.97 272.08 1406.14Z" fill="white"/>
<path d="M289.469 1406.14C289.469 1407.3 288.595 1408.18 287.429 1408.18C286.263 1408.18 285.389 1407.3 285.389 1406.14C285.389 1404.97 286.263 1404.1 287.429 1404.1C288.498 1404.1 289.469 1404.97 289.469 1406.14Z" fill="white"/>
<path d="M306.762 1406.14C306.762 1407.3 305.887 1408.18 304.722 1408.18C303.556 1408.18 302.682 1407.3 302.682 1406.14C302.682 1404.97 303.556 1404.1 304.722 1404.1C305.887 1404.1 306.762 1404.97 306.762 1406.14Z" fill="white"/>
<path d="M322.111 1408.18C323.238 1408.18 324.151 1407.26 324.151 1406.14C324.151 1405.01 323.238 1404.1 322.111 1404.1C320.984 1404.1 320.071 1405.01 320.071 1406.14C320.071 1407.26 320.984 1408.18 322.111 1408.18Z" fill="white"/>
<path d="M341.54 1406.14C341.54 1407.3 340.666 1408.18 339.5 1408.18C338.334 1408.18 337.46 1407.3 337.46 1406.14C337.46 1404.97 338.334 1404.1 339.5 1404.1C340.569 1404.1 341.54 1404.97 341.54 1406.14Z" fill="white"/>
<path d="M358.929 1406.14C358.929 1407.3 358.055 1408.18 356.889 1408.18C355.723 1408.18 354.849 1407.3 354.849 1406.14C354.849 1404.97 355.723 1404.1 356.889 1404.1C358.055 1404.1 358.929 1404.97 358.929 1406.14Z" fill="white"/>
<path d="M376.222 1406.14C376.222 1407.3 375.347 1408.18 374.182 1408.18C373.016 1408.18 372.142 1407.3 372.142 1406.14C372.142 1404.97 373.016 1404.1 374.182 1404.1C375.347 1404.1 376.222 1404.97 376.222 1406.14Z" fill="white"/>
<path d="M391.571 1408.18C392.698 1408.18 393.611 1407.26 393.611 1406.14C393.611 1405.01 392.698 1404.1 391.571 1404.1C390.444 1404.1 389.531 1405.01 389.531 1406.14C389.531 1407.26 390.444 1408.18 391.571 1408.18Z" fill="white"/>
<path d="M411 1406.14C411 1407.3 410.126 1408.18 408.96 1408.18C407.794 1408.18 406.92 1407.3 406.92 1406.14C406.92 1404.97 407.794 1404.1 408.96 1404.1C410.029 1404.1 411 1404.97 411 1406.14Z" fill="white"/>
<path d="M272.08 1420.6C272.08 1421.76 271.206 1422.64 270.04 1422.64C268.874 1422.64 268 1421.76 268 1420.6C268 1419.44 268.874 1418.56 270.04 1418.56C271.206 1418.56 272.08 1419.44 272.08 1420.6Z" fill="white"/>
<path d="M289.469 1420.6C289.469 1421.76 288.595 1422.64 287.429 1422.64C286.263 1422.64 285.389 1421.76 285.389 1420.6C285.389 1419.44 286.263 1418.56 287.429 1418.56C288.498 1418.56 289.469 1419.44 289.469 1420.6Z" fill="white"/>
<path d="M306.762 1420.6C306.762 1421.76 305.887 1422.64 304.722 1422.64C303.556 1422.64 302.682 1421.76 302.682 1420.6C302.682 1419.44 303.556 1418.56 304.722 1418.56C305.887 1418.56 306.762 1419.44 306.762 1420.6Z" fill="white"/>
<path d="M324.151 1420.6C324.151 1421.76 323.277 1422.64 322.111 1422.64C320.945 1422.64 320.071 1421.76 320.071 1420.6C320.071 1419.44 320.945 1418.56 322.111 1418.56C323.277 1418.56 324.151 1419.44 324.151 1420.6Z" fill="white"/>
<path d="M341.54 1420.6C341.54 1421.76 340.666 1422.64 339.5 1422.64C338.334 1422.64 337.46 1421.76 337.46 1420.6C337.46 1419.44 338.334 1418.56 339.5 1418.56C340.569 1418.56 341.54 1419.44 341.54 1420.6Z" fill="white"/>
<path d="M358.929 1420.6C358.929 1421.76 358.055 1422.64 356.889 1422.64C355.723 1422.64 354.849 1421.76 354.849 1420.6C354.849 1419.44 355.723 1418.56 356.889 1418.56C358.055 1418.56 358.929 1419.44 358.929 1420.6Z" fill="white"/>
<path d="M376.222 1420.6C376.222 1421.76 375.347 1422.64 374.182 1422.64C373.016 1422.64 372.142 1421.76 372.142 1420.6C372.142 1419.44 373.016 1418.56 374.182 1418.56C375.347 1418.56 376.222 1419.44 376.222 1420.6Z" fill="white"/>
<path d="M393.611 1420.6C393.611 1421.76 392.737 1422.64 391.571 1422.64C390.405 1422.64 389.531 1421.76 389.531 1420.6C389.531 1419.44 390.405 1418.56 391.571 1418.56C392.737 1418.56 393.611 1419.44 393.611 1420.6Z" fill="white"/>
<path d="M411 1420.6C411 1421.76 410.126 1422.64 408.96 1422.64C407.794 1422.64 406.92 1421.76 406.92 1420.6C406.92 1419.44 407.794 1418.56 408.96 1418.56C410.029 1418.56 411 1419.44 411 1420.6Z" fill="white"/>
<path d="M272.08 1434.96C272.08 1436.13 271.206 1437 270.04 1437C268.874 1437 268 1436.13 268 1434.96C268 1433.8 268.874 1432.92 270.04 1432.92C271.206 1432.92 272.08 1433.89 272.08 1434.96Z" fill="white"/>
<path d="M289.469 1434.96C289.469 1436.13 288.595 1437 287.429 1437C286.263 1437 285.389 1436.13 285.389 1434.96C285.389 1433.8 286.263 1432.92 287.429 1432.92C288.498 1432.92 289.469 1433.89 289.469 1434.96Z" fill="white"/>
<path d="M306.762 1434.96C306.762 1436.13 305.887 1437 304.722 1437C303.556 1437 302.682 1436.13 302.682 1434.96C302.682 1433.8 303.556 1432.92 304.722 1432.92C305.887 1432.92 306.762 1433.89 306.762 1434.96Z" fill="white"/>
<path d="M324.151 1434.96C324.151 1436.13 323.277 1437 322.111 1437C320.945 1437 320.071 1436.13 320.071 1434.96C320.071 1433.8 320.945 1432.92 322.111 1432.92C323.277 1432.92 324.151 1433.89 324.151 1434.96Z" fill="white"/>
<path d="M341.54 1434.96C341.54 1436.13 340.666 1437 339.5 1437C338.334 1437 337.46 1436.13 337.46 1434.96C337.46 1433.8 338.334 1432.92 339.5 1432.92C340.569 1432.92 341.54 1433.89 341.54 1434.96Z" fill="white"/>
<path d="M358.929 1434.96C358.929 1436.13 358.055 1437 356.889 1437C355.723 1437 354.849 1436.13 354.849 1434.96C354.849 1433.8 355.723 1432.92 356.889 1432.92C358.055 1432.92 358.929 1433.89 358.929 1434.96Z" fill="white"/>
<path d="M376.222 1434.96C376.222 1436.13 375.347 1437 374.182 1437C373.016 1437 372.142 1436.13 372.142 1434.96C372.142 1433.8 373.016 1432.92 374.182 1432.92C375.347 1432.92 376.222 1433.89 376.222 1434.96Z" fill="white"/>
<path d="M393.611 1434.96C393.611 1436.13 392.737 1437 391.571 1437C390.405 1437 389.531 1436.13 389.531 1434.96C389.531 1433.8 390.405 1432.92 391.571 1432.92C392.737 1432.92 393.611 1433.89 393.611 1434.96Z" fill="white"/>
<path d="M411 1434.96C411 1436.13 410.126 1437 408.96 1437C407.794 1437 406.92 1436.13 406.92 1434.96C406.92 1433.8 407.794 1432.92 408.96 1432.92C410.029 1432.92 411 1433.89 411 1434.96Z" fill="white"/>
<g opacity="0.6">
<path d="M1173.73 955.89C1184.33 955.89 1192.96 947.165 1192.96 936.453C1192.96 925.742 1184.33 917.017 1173.73 917.017L1173.73 955.89Z" fill="white"/>
<path d="M1143.73 955.89C1154.33 955.89 1162.96 947.165 1162.96 936.453C1162.96 925.742 1154.33 917.017 1143.73 917.017L1143.73 955.89Z" fill="white"/>
<path d="M1113.73 955.89C1124.33 955.89 1132.96 947.165 1132.96 936.453C1132.96 925.742 1124.33 917.017 1113.73 917.017L1113.73 955.89Z" fill="white"/>
</g>
<g opacity="0.6" clip-path="url(#clip1_13082_2359)">
<path d="M72.5498 814C32.4434 814 0 846.443 0 886.55C0 926.557 32.4434 959.1 72.5498 959.1C112.557 959.1 145.1 926.656 145.1 886.55C145 846.443 112.557 814 72.5498 814ZM72.5498 954.422C35.0309 954.422 4.67742 924.069 4.67742 886.55C4.67742 849.031 35.0309 818.677 72.5498 818.677C110.069 818.677 140.422 849.031 140.422 886.55C140.422 923.969 109.969 954.422 72.5498 954.422Z" fill="white"/>
<path d="M72.5498 829.625C41.2011 829.625 15.7241 855.102 15.7241 886.451C15.7241 917.799 41.2011 943.276 72.5498 943.276C103.898 943.276 129.375 917.899 129.375 886.55C129.375 855.102 103.898 829.625 72.5498 829.625ZM72.5498 934.618C45.9781 934.618 24.3823 913.022 24.3823 886.451C24.3823 859.879 45.9781 838.283 72.5498 838.283C99.1215 838.283 120.717 859.879 120.717 886.451C120.717 913.022 99.1215 934.618 72.5498 934.618Z" fill="white"/>
<path d="M72.5503 854.604C54.9353 854.604 40.6045 868.934 40.6045 886.549C40.6045 904.164 54.8358 918.495 72.5503 918.495C90.1652 918.495 104.496 904.164 104.496 886.549C104.397 868.934 90.1652 854.604 72.5503 854.604ZM72.5503 903.667C63.0959 903.667 55.4329 896.004 55.4329 886.549C55.4329 877.095 63.0959 869.432 72.5503 869.432C82.0046 869.432 89.6676 877.095 89.6676 886.549C89.6676 896.004 82.0046 903.667 72.5503 903.667Z" fill="white"/>
</g>
<g opacity="0.6">
<path d="M1831.3 512.921L1831.3 501L1863 501L1863 532.699L1851.17 532.699L1851.17 512.921L1831.3 512.921Z" fill="white"/>
<path d="M1809.9 534.326L1809.9 522.495L1841.6 522.495L1841.6 554.104L1829.68 554.104L1829.68 534.326L1809.9 534.326Z" fill="white"/>
<path d="M1788.49 555.818L1788.49 543.897L1820.1 543.897L1820.1 575.596L1808.27 575.596L1808.27 555.818L1788.49 555.818Z" fill="white"/>
<path d="M1767 577.222L1767 565.301L1798.7 565.301L1798.7 597L1786.78 597L1786.78 577.222L1767 577.222Z" fill="white"/>
</g>
<path d="M1181.08 30.8602C1181.08 32.0247 1180.21 32.8981 1179.04 32.8981C1177.87 32.8981 1177 32.0247 1177 30.8602C1177 29.6956 1177.87 28.8223 1179.04 28.8223C1180.21 28.8223 1181.08 29.7927 1181.08 30.8602Z" fill="white"/>
<path d="M1198.47 30.8602C1198.47 32.0247 1197.6 32.8981 1196.43 32.8981C1195.26 32.8981 1194.39 32.0247 1194.39 30.8602C1194.39 29.6956 1195.26 28.8223 1196.43 28.8223C1197.5 28.8223 1198.47 29.7927 1198.47 30.8602Z" fill="white"/>
<path d="M1215.76 30.8602C1215.76 32.0247 1214.89 32.8981 1213.72 32.8981C1212.56 32.8981 1211.68 32.0247 1211.68 30.8602C1211.68 29.6956 1212.56 28.8223 1213.72 28.8223C1214.89 28.8223 1215.76 29.7927 1215.76 30.8602Z" fill="white"/>
<path d="M1233.15 30.8602C1233.15 32.0247 1232.28 32.8981 1231.11 32.8981C1229.95 32.8981 1229.07 32.0247 1229.07 30.8602C1229.07 29.6956 1229.95 28.8223 1231.11 28.8223C1232.28 28.8223 1233.15 29.7927 1233.15 30.8602Z" fill="white"/>
<path d="M1250.54 30.8602C1250.54 32.0247 1249.67 32.8981 1248.5 32.8981C1247.33 32.8981 1246.46 32.0247 1246.46 30.8602C1246.46 29.6956 1247.33 28.8223 1248.5 28.8223C1249.57 28.8223 1250.54 29.7927 1250.54 30.8602Z" fill="white"/>
<path d="M1267.93 30.8602C1267.93 32.0247 1267.05 32.8981 1265.89 32.8981C1264.72 32.8981 1263.85 32.0247 1263.85 30.8602C1263.85 29.6956 1264.72 28.8223 1265.89 28.8223C1267.05 28.8223 1267.93 29.7927 1267.93 30.8602Z" fill="white"/>
<path d="M1285.22 30.8602C1285.22 32.0247 1284.35 32.8981 1283.18 32.8981C1282.02 32.8981 1281.14 32.0247 1281.14 30.8602C1281.14 29.6956 1282.02 28.8223 1283.18 28.8223C1284.35 28.8223 1285.22 29.7927 1285.22 30.8602Z" fill="white"/>
<path d="M1302.61 30.8602C1302.61 32.0247 1301.74 32.8981 1300.57 32.8981C1299.41 32.8981 1298.53 32.0247 1298.53 30.8602C1298.53 29.6956 1299.41 28.8223 1300.57 28.8223C1301.74 28.8223 1302.61 29.7927 1302.61 30.8602Z" fill="white"/>
<path d="M1320 30.8602C1320 32.0247 1319.13 32.8981 1317.96 32.8981C1316.79 32.8981 1315.92 32.0247 1315.92 30.8602C1315.92 29.6956 1316.79 28.8223 1317.96 28.8223C1319.03 28.8223 1320 29.7927 1320 30.8602Z" fill="white"/>
<path d="M1181.08 45.3191C1181.08 46.4837 1180.21 47.357 1179.04 47.357C1177.87 47.357 1177 46.4837 1177 45.3191C1177 44.1546 1177.87 43.2812 1179.04 43.2812C1180.21 43.2812 1181.08 44.1546 1181.08 45.3191Z" fill="white"/>
<path d="M1198.47 45.3191C1198.47 46.4837 1197.6 47.357 1196.43 47.357C1195.26 47.357 1194.39 46.4837 1194.39 45.3191C1194.39 44.1546 1195.26 43.2812 1196.43 43.2812C1197.5 43.2812 1198.47 44.1546 1198.47 45.3191Z" fill="white"/>
<path d="M1215.76 45.3191C1215.76 46.4837 1214.89 47.357 1213.72 47.357C1212.56 47.357 1211.68 46.4837 1211.68 45.3191C1211.68 44.1546 1212.56 43.2812 1213.72 43.2812C1214.89 43.2812 1215.76 44.1546 1215.76 45.3191Z" fill="white"/>
<path d="M1233.15 45.3191C1233.15 46.4837 1232.28 47.357 1231.11 47.357C1229.95 47.357 1229.07 46.4837 1229.07 45.3191C1229.07 44.1546 1229.95 43.2812 1231.11 43.2812C1232.28 43.2812 1233.15 44.1546 1233.15 45.3191Z" fill="white"/>
<path d="M1250.54 45.3191C1250.54 46.4837 1249.67 47.357 1248.5 47.357C1247.33 47.357 1246.46 46.4837 1246.46 45.3191C1246.46 44.1546 1247.33 43.2812 1248.5 43.2812C1249.57 43.2812 1250.54 44.1546 1250.54 45.3191Z" fill="white"/>
<path d="M1267.93 45.3191C1267.93 46.4837 1267.05 47.357 1265.89 47.357C1264.72 47.357 1263.85 46.4837 1263.85 45.3191C1263.85 44.1546 1264.72 43.2812 1265.89 43.2812C1267.05 43.2812 1267.93 44.1546 1267.93 45.3191Z" fill="white"/>
<path d="M1285.22 45.3191C1285.22 46.4837 1284.35 47.357 1283.18 47.357C1282.02 47.357 1281.14 46.4837 1281.14 45.3191C1281.14 44.1546 1282.02 43.2812 1283.18 43.2812C1284.35 43.2812 1285.22 44.1546 1285.22 45.3191Z" fill="white"/>
<path d="M1302.61 45.3191C1302.61 46.4837 1301.74 47.357 1300.57 47.357C1299.41 47.357 1298.53 46.4837 1298.53 45.3191C1298.53 44.1546 1299.41 43.2812 1300.57 43.2812C1301.74 43.2812 1302.61 44.1546 1302.61 45.3191Z" fill="white"/>
<path d="M1320 45.3191C1320 46.4837 1319.13 47.357 1317.96 47.357C1316.79 47.357 1315.92 46.4837 1315.92 45.3191C1315.92 44.1546 1316.79 43.2812 1317.96 43.2812C1319.03 43.2812 1320 44.1546 1320 45.3191Z" fill="white"/>
<path d="M1181.08 2.03789C1181.08 3.2024 1180.21 4.07579 1179.04 4.07579C1177.87 4.07579 1177 3.2024 1177 2.03789C1177 0.873382 1177.87 0 1179.04 0C1180.21 0 1181.08 0.873382 1181.08 2.03789Z" fill="white"/>
<path d="M1198.47 2.03789C1198.47 3.2024 1197.6 4.07579 1196.43 4.07579C1195.26 4.07579 1194.39 3.2024 1194.39 2.03789C1194.39 0.873382 1195.26 0 1196.43 0C1197.5 0 1198.47 0.873382 1198.47 2.03789Z" fill="white"/>
<path d="M1215.76 2.03789C1215.76 3.2024 1214.89 4.07579 1213.72 4.07579C1212.56 4.07579 1211.68 3.2024 1211.68 2.03789C1211.68 0.873382 1212.65 0 1213.72 0C1214.89 0 1215.76 0.873382 1215.76 2.03789Z" fill="white"/>
<path d="M1233.15 2.03789C1233.15 3.2024 1232.28 4.07579 1231.11 4.07579C1229.95 4.07579 1229.07 3.2024 1229.07 2.03789C1229.07 0.873382 1230.04 0 1231.11 0C1232.18 0 1233.15 0.873382 1233.15 2.03789Z" fill="white"/>
<path d="M1250.54 2.03789C1250.54 3.2024 1249.67 4.07579 1248.5 4.07579C1247.33 4.07579 1246.46 3.2024 1246.46 2.03789C1246.46 0.873382 1247.33 0 1248.5 0C1249.57 0 1250.54 0.873382 1250.54 2.03789Z" fill="white"/>
<path d="M1267.93 2.03789C1267.93 3.2024 1267.05 4.07579 1265.89 4.07579C1264.72 4.07579 1263.85 3.2024 1263.85 2.03789C1263.85 0.873382 1264.72 0 1265.89 0C1267.05 0 1267.93 0.873382 1267.93 2.03789Z" fill="white"/>
<path d="M1285.22 2.03789C1285.22 3.2024 1284.35 4.07579 1283.18 4.07579C1282.02 4.07579 1281.14 3.2024 1281.14 2.03789C1281.14 0.873382 1282.02 0 1283.18 0C1284.35 0 1285.22 0.873382 1285.22 2.03789Z" fill="white"/>
<path d="M1302.61 2.03789C1302.61 3.2024 1301.74 4.07579 1300.57 4.07579C1299.41 4.07579 1298.53 3.2024 1298.53 2.03789C1298.53 0.873382 1299.41 0 1300.57 0C1301.74 0 1302.61 0.873382 1302.61 2.03789Z" fill="white"/>
<path d="M1320 2.03789C1320 3.2024 1319.13 4.07579 1317.96 4.07579C1316.79 4.07579 1315.92 3.2024 1315.92 2.03789C1315.92 0.873382 1316.79 0 1317.96 0C1319.03 0 1320 0.873382 1320 2.03789Z" fill="white"/>
<path d="M1181.08 16.4969C1181.08 17.6614 1180.21 18.5348 1179.04 18.5348C1177.87 18.5348 1177 17.5643 1177 16.4969C1177 15.3324 1177.87 14.459 1179.04 14.459C1180.21 14.459 1181.08 15.3324 1181.08 16.4969Z" fill="white"/>
<path d="M1198.47 16.4969C1198.47 17.6614 1197.6 18.5348 1196.43 18.5348C1195.26 18.5348 1194.39 17.6614 1194.39 16.4969C1194.39 15.3324 1195.26 14.459 1196.43 14.459C1197.5 14.459 1198.47 15.3324 1198.47 16.4969Z" fill="white"/>
<path d="M1215.76 16.4969C1215.76 17.6614 1214.89 18.5348 1213.72 18.5348C1212.56 18.5348 1211.68 17.6614 1211.68 16.4969C1211.68 15.3324 1212.56 14.459 1213.72 14.459C1214.89 14.459 1215.76 15.3324 1215.76 16.4969Z" fill="white"/>
<path d="M1233.15 16.4969C1233.15 17.6614 1232.28 18.5348 1231.11 18.5348C1229.95 18.5348 1229.07 17.6614 1229.07 16.4969C1229.07 15.3324 1229.95 14.459 1231.11 14.459C1232.28 14.459 1233.15 15.3324 1233.15 16.4969Z" fill="white"/>
<path d="M1250.54 16.4969C1250.54 17.6614 1249.67 18.5348 1248.5 18.5348C1247.33 18.5348 1246.46 17.6614 1246.46 16.4969C1246.46 15.3324 1247.33 14.459 1248.5 14.459C1249.57 14.459 1250.54 15.3324 1250.54 16.4969Z" fill="white"/>
<path d="M1267.93 16.4969C1267.93 17.6614 1267.05 18.5348 1265.89 18.5348C1264.72 18.5348 1263.85 17.6614 1263.85 16.4969C1263.85 15.3324 1264.72 14.459 1265.89 14.459C1267.05 14.459 1267.93 15.3324 1267.93 16.4969Z" fill="white"/>
<path d="M1285.22 16.4969C1285.22 17.6614 1284.35 18.5348 1283.18 18.5348C1282.02 18.5348 1281.14 17.6614 1281.14 16.4969C1281.14 15.3324 1282.02 14.459 1283.18 14.459C1284.35 14.459 1285.22 15.3324 1285.22 16.4969Z" fill="white"/>
<path d="M1302.61 16.4969C1302.61 17.6614 1301.74 18.5348 1300.57 18.5348C1299.41 18.5348 1298.53 17.6614 1298.53 16.4969C1298.53 15.3324 1299.41 14.459 1300.57 14.459C1301.74 14.459 1302.61 15.3324 1302.61 16.4969Z" fill="white"/>
<path d="M1320 16.4969C1320 17.6614 1319.13 18.5348 1317.96 18.5348C1316.79 18.5348 1315.92 17.6614 1315.92 16.4969C1315.92 15.3324 1316.79 14.459 1317.96 14.459C1319.03 14.459 1320 15.3324 1320 16.4969Z" fill="white"/>
<path d="M1181.08 59.6805C1181.08 60.845 1180.21 61.7184 1179.04 61.7184C1177.87 61.7184 1177 60.845 1177 59.6805C1177 58.516 1177.87 57.6426 1179.04 57.6426C1180.21 57.6426 1181.08 58.613 1181.08 59.6805Z" fill="white"/>
<path d="M1198.47 59.6805C1198.47 60.845 1197.6 61.7184 1196.43 61.7184C1195.26 61.7184 1194.39 60.845 1194.39 59.6805C1194.39 58.516 1195.26 57.6426 1196.43 57.6426C1197.5 57.6426 1198.47 58.613 1198.47 59.6805Z" fill="white"/>
<path d="M1215.76 59.6805C1215.76 60.845 1214.89 61.7184 1213.72 61.7184C1212.56 61.7184 1211.68 60.845 1211.68 59.6805C1211.68 58.516 1212.56 57.6426 1213.72 57.6426C1214.89 57.6426 1215.76 58.613 1215.76 59.6805Z" fill="white"/>
<path d="M1233.15 59.6805C1233.15 60.845 1232.28 61.7184 1231.11 61.7184C1229.95 61.7184 1229.07 60.845 1229.07 59.6805C1229.07 58.516 1229.95 57.6426 1231.11 57.6426C1232.28 57.6426 1233.15 58.613 1233.15 59.6805Z" fill="white"/>
<path d="M1250.54 59.6805C1250.54 60.845 1249.67 61.7184 1248.5 61.7184C1247.33 61.7184 1246.46 60.845 1246.46 59.6805C1246.46 58.516 1247.33 57.6426 1248.5 57.6426C1249.57 57.6426 1250.54 58.613 1250.54 59.6805Z" fill="white"/>
<path d="M1267.93 59.6805C1267.93 60.845 1267.05 61.7184 1265.89 61.7184C1264.72 61.7184 1263.85 60.845 1263.85 59.6805C1263.85 58.516 1264.72 57.6426 1265.89 57.6426C1267.05 57.6426 1267.93 58.613 1267.93 59.6805Z" fill="white"/>
<path d="M1285.22 59.6805C1285.22 60.845 1284.35 61.7184 1283.18 61.7184C1282.02 61.7184 1281.14 60.845 1281.14 59.6805C1281.14 58.516 1282.02 57.6426 1283.18 57.6426C1284.35 57.6426 1285.22 58.613 1285.22 59.6805Z" fill="white"/>
<path d="M1302.61 59.6805C1302.61 60.845 1301.74 61.7184 1300.57 61.7184C1299.41 61.7184 1298.53 60.845 1298.53 59.6805C1298.53 58.516 1299.41 57.6426 1300.57 57.6426C1301.74 57.6426 1302.61 58.613 1302.61 59.6805Z" fill="white"/>
<path d="M1320 59.6805C1320 60.845 1319.13 61.7184 1317.96 61.7184C1316.79 61.7184 1315.92 60.845 1315.92 59.6805C1315.92 58.516 1316.79 57.6426 1317.96 57.6426C1319.03 57.6426 1320 58.613 1320 59.6805Z" fill="white"/>
<path d="M1181.08 74.1395C1181.08 75.304 1180.21 76.1773 1179.04 76.1773C1177.87 76.1773 1177 75.304 1177 74.1395C1177 72.9749 1177.87 72.1016 1179.04 72.1016C1180.21 72.1016 1181.08 72.9749 1181.08 74.1395Z" fill="white"/>
<path d="M1198.47 74.1395C1198.47 75.304 1197.6 76.1773 1196.43 76.1773C1195.26 76.1773 1194.39 75.304 1194.39 74.1395C1194.39 72.9749 1195.26 72.1016 1196.43 72.1016C1197.5 72.1016 1198.47 72.9749 1198.47 74.1395Z" fill="white"/>
<path d="M1215.76 74.1395C1215.76 75.304 1214.89 76.1773 1213.72 76.1773C1212.56 76.1773 1211.68 75.304 1211.68 74.1395C1211.68 72.9749 1212.56 72.1016 1213.72 72.1016C1214.89 72.1016 1215.76 72.9749 1215.76 74.1395Z" fill="white"/>
<path d="M1231.11 76.1773C1232.24 76.1773 1233.15 75.265 1233.15 74.1395C1233.15 73.014 1232.24 72.1016 1231.11 72.1016C1229.98 72.1016 1229.07 73.014 1229.07 74.1395C1229.07 75.265 1229.98 76.1773 1231.11 76.1773Z" fill="white"/>
<path d="M1250.54 74.1395C1250.54 75.304 1249.67 76.1773 1248.5 76.1773C1247.33 76.1773 1246.46 75.304 1246.46 74.1395C1246.46 72.9749 1247.33 72.1016 1248.5 72.1016C1249.57 72.1016 1250.54 72.9749 1250.54 74.1395Z" fill="white"/>
<path d="M1267.93 74.1395C1267.93 75.304 1267.05 76.1773 1265.89 76.1773C1264.72 76.1773 1263.85 75.304 1263.85 74.1395C1263.85 72.9749 1264.72 72.1016 1265.89 72.1016C1267.05 72.1016 1267.93 72.9749 1267.93 74.1395Z" fill="white"/>
<path d="M1285.22 74.1395C1285.22 75.304 1284.35 76.1773 1283.18 76.1773C1282.02 76.1773 1281.14 75.304 1281.14 74.1395C1281.14 72.9749 1282.02 72.1016 1283.18 72.1016C1284.35 72.1016 1285.22 72.9749 1285.22 74.1395Z" fill="white"/>
<path d="M1300.57 76.1773C1301.7 76.1773 1302.61 75.265 1302.61 74.1395C1302.61 73.014 1301.7 72.1016 1300.57 72.1016C1299.44 72.1016 1298.53 73.014 1298.53 74.1395C1298.53 75.265 1299.44 76.1773 1300.57 76.1773Z" fill="white"/>
<path d="M1320 74.1395C1320 75.304 1319.13 76.1773 1317.96 76.1773C1316.79 76.1773 1315.92 75.304 1315.92 74.1395C1315.92 72.9749 1316.79 72.1016 1317.96 72.1016C1319.03 72.1016 1320 72.9749 1320 74.1395Z" fill="white"/>
<path d="M1181.08 88.6004C1181.08 89.7649 1180.21 90.6383 1179.04 90.6383C1177.87 90.6383 1177 89.7649 1177 88.6004C1177 87.4359 1177.87 86.5625 1179.04 86.5625C1180.21 86.5625 1181.08 87.4359 1181.08 88.6004Z" fill="white"/>
<path d="M1198.47 88.6004C1198.47 89.7649 1197.6 90.6383 1196.43 90.6383C1195.26 90.6383 1194.39 89.7649 1194.39 88.6004C1194.39 87.4359 1195.26 86.5625 1196.43 86.5625C1197.5 86.5625 1198.47 87.4359 1198.47 88.6004Z" fill="white"/>
<path d="M1215.76 88.6004C1215.76 89.7649 1214.89 90.6383 1213.72 90.6383C1212.56 90.6383 1211.68 89.7649 1211.68 88.6004C1211.68 87.4359 1212.56 86.5625 1213.72 86.5625C1214.89 86.5625 1215.76 87.4359 1215.76 88.6004Z" fill="white"/>
<path d="M1233.15 88.6004C1233.15 89.7649 1232.28 90.6383 1231.11 90.6383C1229.95 90.6383 1229.07 89.7649 1229.07 88.6004C1229.07 87.4359 1229.95 86.5625 1231.11 86.5625C1232.28 86.5625 1233.15 87.4359 1233.15 88.6004Z" fill="white"/>
<path d="M1250.54 88.6004C1250.54 89.7649 1249.67 90.6383 1248.5 90.6383C1247.33 90.6383 1246.46 89.7649 1246.46 88.6004C1246.46 87.4359 1247.33 86.5625 1248.5 86.5625C1249.57 86.5625 1250.54 87.4359 1250.54 88.6004Z" fill="white"/>
<path d="M1267.93 88.6004C1267.93 89.7649 1267.05 90.6383 1265.89 90.6383C1264.72 90.6383 1263.85 89.7649 1263.85 88.6004C1263.85 87.4359 1264.72 86.5625 1265.89 86.5625C1267.05 86.5625 1267.93 87.4359 1267.93 88.6004Z" fill="white"/>
<path d="M1285.22 88.6004C1285.22 89.7649 1284.35 90.6383 1283.18 90.6383C1282.02 90.6383 1281.14 89.7649 1281.14 88.6004C1281.14 87.4359 1282.02 86.5625 1283.18 86.5625C1284.35 86.5625 1285.22 87.4359 1285.22 88.6004Z" fill="white"/>
<path d="M1302.61 88.6004C1302.61 89.7649 1301.74 90.6383 1300.57 90.6383C1299.41 90.6383 1298.53 89.7649 1298.53 88.6004C1298.53 87.4359 1299.41 86.5625 1300.57 86.5625C1301.74 86.5625 1302.61 87.4359 1302.61 88.6004Z" fill="white"/>
<path d="M1320 88.6004C1320 89.7649 1319.13 90.6383 1317.96 90.6383C1316.79 90.6383 1315.92 89.7649 1315.92 88.6004C1315.92 87.4359 1316.79 86.5625 1317.96 86.5625C1319.03 86.5625 1320 87.4359 1320 88.6004Z" fill="white"/>
<path d="M1181.08 102.962C1181.08 104.126 1180.21 105 1179.04 105C1177.87 105 1177 104.126 1177 102.962C1177 101.797 1177.87 100.924 1179.04 100.924C1180.21 100.924 1181.08 101.894 1181.08 102.962Z" fill="white"/>
<path d="M1198.47 102.962C1198.47 104.126 1197.6 105 1196.43 105C1195.26 105 1194.39 104.126 1194.39 102.962C1194.39 101.797 1195.26 100.924 1196.43 100.924C1197.5 100.924 1198.47 101.894 1198.47 102.962Z" fill="white"/>
<path d="M1215.76 102.962C1215.76 104.126 1214.89 105 1213.72 105C1212.56 105 1211.68 104.126 1211.68 102.962C1211.68 101.797 1212.56 100.924 1213.72 100.924C1214.89 100.924 1215.76 101.894 1215.76 102.962Z" fill="white"/>
<path d="M1233.15 102.962C1233.15 104.126 1232.28 105 1231.11 105C1229.95 105 1229.07 104.126 1229.07 102.962C1229.07 101.797 1229.95 100.924 1231.11 100.924C1232.28 100.924 1233.15 101.894 1233.15 102.962Z" fill="white"/>
<path d="M1250.54 102.962C1250.54 104.126 1249.67 105 1248.5 105C1247.33 105 1246.46 104.126 1246.46 102.962C1246.46 101.797 1247.33 100.924 1248.5 100.924C1249.57 100.924 1250.54 101.894 1250.54 102.962Z" fill="white"/>
<path d="M1267.93 102.962C1267.93 104.126 1267.05 105 1265.89 105C1264.72 105 1263.85 104.126 1263.85 102.962C1263.85 101.797 1264.72 100.924 1265.89 100.924C1267.05 100.924 1267.93 101.894 1267.93 102.962Z" fill="white"/>
<path d="M1285.22 102.962C1285.22 104.126 1284.35 105 1283.18 105C1282.02 105 1281.14 104.126 1281.14 102.962C1281.14 101.797 1282.02 100.924 1283.18 100.924C1284.35 100.924 1285.22 101.894 1285.22 102.962Z" fill="white"/>
<path d="M1302.61 102.962C1302.61 104.126 1301.74 105 1300.57 105C1299.41 105 1298.53 104.126 1298.53 102.962C1298.53 101.797 1299.41 100.924 1300.57 100.924C1301.74 100.924 1302.61 101.894 1302.61 102.962Z" fill="white"/>
<path d="M1320 102.962C1320 104.126 1319.13 105 1317.96 105C1316.79 105 1315.92 104.126 1315.92 102.962C1315.92 101.797 1316.79 100.924 1317.96 100.924C1319.03 100.924 1320 101.894 1320 102.962Z" fill="white"/>
<path opacity="0.6" d="M170 81.9782C160.638 91.3406 145.384 91.3406 136.022 81.9782C126.659 72.6158 126.659 57.3624 136.022 48L170 81.9782Z" fill="white"/>
<defs>
<clipPath id="clip0_13082_2359">
<rect width="258" height="258" fill="white" transform="translate(1713 1372)"/>
</clipPath>
<clipPath id="clip1_13082_2359">
<rect width="145" height="145" fill="white" transform="translate(0 814)"/>
</clipPath>
</defs>
</svg>
